<?xml version="1.0" encoding="UTF-8" standalone="no"?>
<!-- Uploaded to: SVG Repo, www.svgrepo.com, Generator: SVG Repo Mixer Tools -->

<svg
   height="800px"
   width="800px"
   version="1.1"
   id="Capa_1"
   viewBox="0 0 60.674 60.674"
   xml:space="preserve"
   sodipodi:docname="ARS.svg"
   inkscape:version="1.4 (86a8ad7, 2024-10-11)"
   xmlns:inkscape="http://www.inkscape.org/namespaces/inkscape"
   xmlns:sodipodi="http://sodipodi.sourceforge.net/DTD/sodipodi-0.dtd"
   xmlns="http://www.w3.org/2000/svg"
   xmlns:svg="http://www.w3.org/2000/svg"><defs
   id="defs2" /><sodipodi:namedview
   id="namedview2"
   pagecolor="#ffffff"
   bordercolor="#000000"
   borderopacity="0.25"
   inkscape:showpageshadow="2"
   inkscape:pageopacity="0.0"
   inkscape:pagecheckerboard="0"
   inkscape:deskcolor="#d1d1d1"
   inkscape:zoom="1.00875"
   inkscape:cx="400"
   inkscape:cy="400"
   inkscape:window-width="1920"
   inkscape:window-height="1009"
   inkscape:window-x="-8"
   inkscape:window-y="-8"
   inkscape:window-maximized="1"
   inkscape:current-layer="Capa_1" />
<g
   id="g2"
   transform="translate(-0.07518463,-0.2255539)">
	<g
   id="g1">
		<path
   style="fill:#010002"
   d="M 46.682,6.95 C 46.007,6.275 44.869,5.803 43.914,5.803 h -5.818 c -0.134,0 -1.318,0.04 -1.516,1.438 -0.02,0.14 -0.05,0.351 -0.121,0.56 -0.473,1.384 -2.979,2.815 -6.353,2.815 -3.374,0 -5.88,-1.432 -6.353,-2.815 C 23.345,6.607 22.307,5.804 21.169,5.804 h -5.397 c -0.627,0 -0.627,0 -6.953,6.322 L 0.733,20.208 C 0.261,20.68 0.001,21.308 0,21.975 c 0,0.669 0.259,1.297 0.732,1.77 l 7.714,7.716 c 0.944,0.945 2.59,0.945 3.536,0 l 2.289,-2.29 v 23.2 c 0,1.379 1.122,2.5 2.5,2.5 h 26.854 c 1.378,0 2.5,-1.121 2.5,-2.5 V 28.892 l 2.568,2.568 c 0.944,0.945 2.591,0.945 3.535,0 l 7.714,-7.716 c 0.472,-0.472 0.732,-1.1 0.732,-1.768 0,-0.668 -0.26,-1.296 -0.732,-1.767 z M 10.214,28.985 3.207,21.977 C 3.778,21.406 4.406,20.778 5.064,20.12 l 7.103,6.912 z m 34.71,-4.733 c -0.894,0 -1.799,0.692 -1.799,2.018 V 51.871 H 17.271 V 26.548 c 0,-1.325 -0.905,-2.017 -1.799,-2.017 -0.367,0 -0.919,0.115 -1.469,0.664 L 12.875,26.324 5.772,19.413 C 9.87,15.316 14.91,10.28 16.39,8.805 h 4.536 c 0.993,2.835 4.76,4.813 9.18,4.813 4.42,0 8.188,-1.978 9.18,-4.813 h 4.628 c 0.162,0.002 0.531,0.155 0.647,0.268 l 10.473,10.472 -7.103,6.911 -1.538,-1.54 c -0.549,-0.549 -1.102,-0.664 -1.469,-0.664 z m 5.536,4.733 -1.823,-1.823 7.104,-6.912 1.727,1.727 z"
   id="path1" />
	</g>
</g>
<path
   style="fill:none;stroke-width:0.0758425"
   d="M 16.315066,8.495864 15.939142,24.585376"
   id="path2" /><rect
   style="fill:#000000;stroke-width:0.0758425"
   id="rect3"
   width="0.37592316"
   height="16.690989"
   x="16.089512"
   y="8.3454943" /><rect
   style="fill:#000000;stroke-width:0.0758425"
   id="rect3-9"
   width="0.37592316"
   height="16.690989"
   x="43.90839"
   y="8.3650427" /><path
   id="path3"
   style="fill:#ff0000;stroke-width:0.0751846"
   d="m 16.351317,8.6085682 c 0,5.3766208 0,10.7532418 0,16.1298628 0.141302,0.134612 0.300168,0.254763 0.405804,0.421904 0.129907,0.18034 0.212834,0.387574 0.308478,0.586713 0.01345,8.672955 0.02679,17.34591 0.04044,26.018865 8.695619,0 17.391238,0 26.086857,0 0.01337,-8.820788 0.02639,-17.641577 0.03955,-26.462367 0.161867,-0.271572 0.309324,-0.5616 0.547192,-0.776348 0.08078,-0.06345 0.161544,-0.126918 0.24234,-0.190347 0,-5.293323 0,-10.586645 0,-15.8799678 -1.624639,0.00142 -3.249279,0.00265 -4.873917,0.0043 -0.173181,0.3763502 -0.32099,0.7672622 -0.550053,1.1148514 -0.482858,0.7519904 -1.158523,1.3628264 -1.895414,1.8598494 -0.582144,0.391503 -1.210462,0.712208 -1.862743,0.969405 -0.0426,0.01592 -0.108653,0.04153 -0.160249,0.06116 -0.40254,0.150582 -0.813801,0.277456 -1.230098,0.384118 -0.288114,0.07362 -0.592793,0.139777 -0.890809,0.193942 -0.14863,0.02705 -0.311872,0.0536 -0.461111,0.0754 -0.315466,0.04625 -0.64356,0.08204 -0.961572,0.10602 -0.278705,0.02064 -0.557362,0.03366 -0.832691,0.03774 -0.465551,0.0077 -0.922321,-0.0074 -1.386156,-0.04424 -0.449203,-0.03613 -0.912505,-0.0957 -1.352274,-0.174468 -0.439726,-0.07906 -0.869715,-0.177513 -1.295134,-0.298385 -0.283027,-0.08069 -0.583423,-0.177417 -0.858995,-0.279158 -0.278527,-0.101853 -0.550658,-0.214357 -0.81694,-0.336815 C 23.633827,11.686498 22.726165,11.095914 22.01373,10.306877 21.6063,9.8564215 21.273937,9.3360889 21.055606,8.7684078 21.012995,8.6648153 20.97036,8.5612326 20.92779,8.4576234 c -1.525491,-1.251e-4 -3.050982,-4.801e-4 -4.576473,-7.402e-4 0,0.050562 0,0.1011231 0,0.151685 z" /><path
   style="fill:#f9f9f9;stroke-width:0.991326"
   d="M 122.15233,298.01548 75.779252,252.7881 142.47451,186.15747 c 36.68239,-36.64685 67.25288,-66.8559 67.93441,-67.13122 0.98652,-0.39852 1.23916,20.18821 1.23916,100.97384 v 101.47442 l -4.17398,-0.93784 c -9.62446,-2.16247 -16.73603,1.0995 -29.5311,13.54552 l -9.4176,9.16068 z"
   id="path4"
   transform="scale(0.0758425)" /><path
   style="fill:#f9f9f9;stroke-width:0.991326"
   d="m 619.07089,333.06186 c -13.68505,-13.73777 -18.12486,-16.33324 -27.93963,-16.33324 h -6.74464 V 216.60471 c 0,-55.06815 0.33576,-100.12392 0.74615,-100.12392 0.41038,0 31.80888,31.11524 69.77444,69.14498 l 69.02829,69.14499 -45.96075,44.60238 c -25.27841,24.5313 -46.31062,44.71899 -46.73825,44.86154 -0.42762,0.14254 -5.90215,-4.88523 -12.16561,-11.17282 z"
   id="path5"
   transform="scale(0.0758425)" /><path
   style="fill:#f9f9f9;stroke-width:0.991326"
   d="m 652.77803,366.71089 -11.39017,-11.49217 24.28748,-23.79397 c 13.35812,-13.08668 34.2404,-33.42725 46.40508,-45.20125 l 22.11759,-21.40729 10.84324,10.84324 10.84324,10.84324 -45.85814,45.85019 -45.85814,45.85018 z"
   id="path6"
   transform="scale(0.0758425)" /><path
   style="fill:#f9f9f9;stroke-width:0.991326"
   d="m 87.965246,332.32712 -45.84545,-45.8534 11.761528,-11.73089 11.761529,-11.73089 45.988987,44.73317 c 25.29394,24.60324 46.10218,45.05883 46.24053,45.45686 0.13836,0.39804 -5.21893,6.18104 -11.90506,12.85113 l -12.15661,12.12742 z"
   id="path7"
   transform="scale(0.0758425)" /></svg>
