<?xml version="1.0" encoding="UTF-8" standalone="no"?>
<!-- Uploaded to: SVG Repo, www.svgrepo.com, Generator: SVG Repo Mixer Tools -->

<svg
   height="800px"
   width="800px"
   version="1.1"
   id="Capa_1"
   viewBox="0 0 60.674 60.674"
   xml:space="preserve"
   sodipodi:docname="AVL.svg"
   inkscape:version="1.4 (86a8ad7, 2024-10-11)"
   xmlns:inkscape="http://www.inkscape.org/namespaces/inkscape"
   xmlns:sodipodi="http://sodipodi.sourceforge.net/DTD/sodipodi-0.dtd"
   xmlns="http://www.w3.org/2000/svg"
   xmlns:svg="http://www.w3.org/2000/svg"><defs
   id="defs2" /><sodipodi:namedview
   id="namedview2"
   pagecolor="#ffffff"
   bordercolor="#000000"
   borderopacity="0.25"
   inkscape:showpageshadow="2"
   inkscape:pageopacity="0.0"
   inkscape:pagecheckerboard="0"
   inkscape:deskcolor="#d1d1d1"
   showgrid="false"
   inkscape:zoom="0.504375"
   inkscape:cx="411.40025"
   inkscape:cy="270.63197"
   inkscape:window-width="1920"
   inkscape:window-height="1009"
   inkscape:window-x="-8"
   inkscape:window-y="-8"
   inkscape:window-maximized="1"
   inkscape:current-layer="Capa_1" />
<g
   id="g2">
	<g
   id="g1">
		<path
   style="fill:#010002;"
   d="M46.682,6.95c-0.675-0.675-1.813-1.147-2.768-1.147h-5.818c-0.134,0-1.318,0.04-1.516,1.438    c-0.02,0.14-0.05,0.351-0.121,0.56c-0.473,1.384-2.979,2.815-6.353,2.815s-5.88-1.432-6.353-2.815    c-0.408-1.194-1.446-1.997-2.584-1.997h-5.397c-0.627,0-0.627,0-6.953,6.322l-8.086,8.082C0.261,20.68,0.001,21.308,0,21.975    c0,0.669,0.259,1.297,0.732,1.77l7.714,7.716c0.944,0.945,2.59,0.945,3.536,0l2.289-2.29v23.2c0,1.379,1.122,2.5,2.5,2.5h26.854    c1.378,0,2.5-1.121,2.5-2.5V28.892l2.568,2.568c0.944,0.945,2.591,0.945,3.535,0l7.714-7.716c0.472-0.472,0.732-1.1,0.732-1.768    s-0.26-1.296-0.732-1.767L46.682,6.95z M10.214,28.985l-7.007-7.008c0.571-0.571,1.199-1.199,1.857-1.857l7.103,6.912    L10.214,28.985z M44.924,24.252c-0.894,0-1.799,0.692-1.799,2.018v25.601H17.271V26.548c0-1.325-0.905-2.017-1.799-2.017    c-0.367,0-0.919,0.115-1.469,0.664l-1.128,1.129l-7.103-6.911C9.87,15.316,14.91,10.28,16.39,8.805h4.536    c0.993,2.835,4.76,4.813,9.18,4.813s8.188-1.978,9.18-4.813h4.628c0.162,0.002,0.531,0.155,0.647,0.268l10.473,10.472    l-7.103,6.911l-1.538-1.54C45.844,24.367,45.291,24.252,44.924,24.252z M50.46,28.985l-1.823-1.823l7.104-6.912l1.727,1.727    L50.46,28.985z"
   id="path1" />
	</g>
</g>
<rect
   style="fill:#000000;stroke-width:0.0758425"
   id="rect2"
   width="0.30073854"
   height="16.991728"
   x="16.390249"
   y="8.6462326" /><rect
   style="fill:#000000;stroke-width:0.0758425"
   id="rect2-8"
   width="0.30073854"
   height="16.991728"
   x="16.370327"
   y="8.2404242" /><path
   id="path2"
   style="fill:#00ffff;stroke-width:0.0375923"
   d="M 16.264365,8.7646968 C 12.704673,12.312123 9.1435688,15.858226 5.5822747,19.404126 c 2.1412593,2.082465 4.2771259,4.170497 6.4252263,6.245914 0.260329,0.247519 0.513579,0.502794 0.780607,0.743065 0.03483,0.04385 0.07288,0.05659 0.116469,0.01574 0.111489,-0.05904 0.191873,-0.161109 0.286511,-0.242497 0.371615,-0.349337 0.721953,-0.721666 1.109519,-1.053744 0.202136,-0.173114 0.438266,-0.309264 0.694218,-0.383951 0.203775,-0.04009 0.413355,-0.02366 0.619842,-0.02785 0.154296,0.0014 0.316358,-5.35e-4 0.455615,0.07627 0.151245,0.07003 0.301841,0.141479 0.452866,0.211993 0,-5.494088 0,-10.988176 0,-16.4822643 -0.08626,0.085965 -0.172522,0.1719297 -0.258783,0.2578951 z" /><path
   style="fill:#00ffff;stroke-width:0.495663"
   d="m 88.475973,335.56396 -45.846677,-45.84869 11.984711,-11.98471 11.984711,-11.98472 4.618857,4.39216 c 2.540371,2.41569 23.531357,22.79798 46.646635,45.29398 l 42.02779,40.90181 -12.53219,12.53942 c -6.89271,6.89669 -12.64581,12.53943 -12.78468,12.53943 -0.13886,0 -20.88349,-20.63191 -46.099157,-45.84868 z"
   id="path3"
   transform="scale(0.0758425)" /><path
   id="path4"
   style="fill:#00ffff;stroke-width:0.0375923"
   d="m 44.21875,8.7148438 c -0.126813,2.9999422 -0.03695,6.0130342 -0.06933,9.0179682 -0.0012,2.305209 -9.99e-4,4.610417 -9.85e-4,6.915626 0.781569,-0.267624 1.672137,-0.02643 2.216402,0.633984 0.549494,0.423692 0.923694,1.127338 1.576566,1.3875 0.698969,-0.297115 1.137479,-1.059847 1.737175,-1.530833 1.905241,-1.867209 3.839994,-3.705327 5.712044,-5.603933 C 51.751644,15.850865 48.103303,12.170532 44.39634,8.5561881 44.230268,8.3169316 44.238591,8.5543822 44.21875,8.7148438 Z" /><rect
   style="fill:#000000;stroke-width:0.0758425"
   id="rect2-8-1"
   width="0.30073854"
   height="16.991728"
   x="44.091072"
   y="8.619463" /><path
   style="fill:#00ffff;stroke-width:0.495663"
   d="m 653.53113,369.76409 -11.64063,-11.64854 4.95314,-4.91677 c 2.72423,-2.70423 23.6816,-23.11992 46.57194,-45.36822 l 41.6188,-40.45145 11.16812,11.16812 11.16812,11.16812 -45.84663,45.84865 c -25.21565,25.21675 -45.9604,45.84864 -46.09943,45.84864 -0.13904,0 -5.49108,-5.24184 -11.89343,-11.64855 z"
   id="path5"
   transform="scale(0.0758425)" /><path
   style="fill:#00ffff;stroke-width:1.40195"
   d="m 227.79942,512.06097 -0.0169,-171.38796 -3.48798,-6.10137 -3.48798,-6.10139 V 222.7664 117.06254 H 247.98 275.15343 l 3.80515,7.77742 c 2.09282,4.27759 7.27394,11.52415 11.51358,16.10347 42.19144,45.57178 139.71973,52.66911 196.24817,14.28137 10.81924,-7.34721 23.56515,-21.20251 28.20181,-30.65647 l 3.68119,-7.50579 h 31.25174 31.25175 v 102.30977 102.30977 l -3.43602,2.25138 c -1.88981,1.23825 -4.72875,4.9218 -6.30876,8.18565 -2.84803,5.88323 -2.87274,7.42003 -2.87274,178.63205 V 683.44893 H 398.15281 227.81631 Z"
   id="path6"
   transform="scale(0.0758425)" /><path
   id="path7"
   style="fill:#800000;stroke-width:0.106327"
   d="m 16.443359,8.7265625 c 0.01436,5.3956615 -0.02869,10.8082765 0.02148,16.1933595 0.345315,0.51612 0.631321,1.047942 0.505979,1.688672 0.0013,8.510026 0.0026,17.020052 0.0038,25.530078 8.815105,0 17.630209,0 26.445313,0 0.0286,-8.839053 -0.06621,-17.679587 0.08594,-26.517578 -0.0788,-0.606173 0.781898,-0.847993 0.871094,-1.35 0,-5.232292 0,-10.464584 0,-15.6968752 -1.717448,0 -3.434896,-1e-7 -5.152344,0 -1.106537,2.5481572 -3.72533,4.0936902 -6.384592,4.5407062 -3.137236,0.53361 -6.599537,0.261776 -9.34134,-1.518403 -1.153347,-0.738058 -1.93757,-1.8238497 -2.565083,-3.0223032 -1.496745,-1e-7 -2.99349,-1e-7 -4.490235,0 v 0.1 z" /></svg>
