<?xml version="1.0" encoding="UTF-8" standalone="no"?>
<!-- Uploaded to: SVG Repo, www.svgrepo.com, Generator: SVG Repo Mixer Tools -->

<svg
   height="800px"
   width="800px"
   version="1.1"
   id="Capa_1"
   viewBox="0 0 60.674 60.674"
   xml:space="preserve"
   sodipodi:docname="BHA.svg"
   inkscape:version="1.4 (86a8ad7, 2024-10-11)"
   xmlns:inkscape="http://www.inkscape.org/namespaces/inkscape"
   xmlns:sodipodi="http://sodipodi.sourceforge.net/DTD/sodipodi-0.dtd"
   xmlns="http://www.w3.org/2000/svg"
   xmlns:svg="http://www.w3.org/2000/svg"><defs
   id="defs2" /><sodipodi:namedview
   id="namedview2"
   pagecolor="#ffffff"
   bordercolor="#000000"
   borderopacity="0.25"
   inkscape:showpageshadow="2"
   inkscape:pageopacity="0.0"
   inkscape:pagecheckerboard="0"
   inkscape:deskcolor="#d1d1d1"
   inkscape:zoom="1.00875"
   inkscape:cx="400"
   inkscape:cy="400"
   inkscape:window-width="1920"
   inkscape:window-height="1009"
   inkscape:window-x="-8"
   inkscape:window-y="-8"
   inkscape:window-maximized="1"
   inkscape:current-layer="Capa_1" />
<path
   style="fill:#ffffff;stroke-width:0.991326"
   d="M 489.21933,418.5254 V 153.53159 l 5.97686,-4.89467 c 7.78779,-6.37769 16.93513,-17.92011 20.462,-25.81959 l 2.80525,-6.28324 4.7088,-0.0267 4.7088,-0.0267 V 400 683.51921 h -19.33085 -19.33086 z"
   id="path7"
   transform="scale(0.0758425)" /><rect
   style="fill:#0000ff;stroke-width:0.0800782"
   id="rect2-5"
   width="2.1051698"
   height="45.26115"
   x="41.161896"
   y="7.5752282"
   ry="0.080823481" /><rect
   style="fill:#0000ff;stroke-width:0.0786352"
   id="rect2-6"
   width="2.0299852"
   height="45.26115"
   x="17.231377"
   y="7.1528778"
   ry="0.080823481" /><rect
   style="fill:#0000ff;stroke-width:0.0769851"
   id="rect2"
   width="2.0299852"
   height="43.381535"
   x="23.683161"
   y="9.7740021"
   ry="0.077467024" /><rect
   style="fill:#0000ff;stroke-width:0.0765167"
   id="rect2-2"
   width="2.0299852"
   height="42.855244"
   x="35.065269"
   y="9.5734472"
   ry="0.076527216" /><rect
   style="fill:#0000ff;stroke-width:0.0757748"
   id="rect2-22"
   width="2.0299852"
   height="42.02821"
   x="29.420311"
   y="11.648168"
   ry="0.075050376" /><g
   id="g2">
	<g
   id="g1">
		<path
   style="fill:#010002;"
   d="M46.682,6.95c-0.675-0.675-1.813-1.147-2.768-1.147h-5.818c-0.134,0-1.318,0.04-1.516,1.438    c-0.02,0.14-0.05,0.351-0.121,0.56c-0.473,1.384-2.979,2.815-6.353,2.815s-5.88-1.432-6.353-2.815    c-0.408-1.194-1.446-1.997-2.584-1.997h-5.397c-0.627,0-0.627,0-6.953,6.322l-8.086,8.082C0.261,20.68,0.001,21.308,0,21.975    c0,0.669,0.259,1.297,0.732,1.77l7.714,7.716c0.944,0.945,2.59,0.945,3.536,0l2.289-2.29v23.2c0,1.379,1.122,2.5,2.5,2.5h26.854    c1.378,0,2.5-1.121,2.5-2.5V28.892l2.568,2.568c0.944,0.945,2.591,0.945,3.535,0l7.714-7.716c0.472-0.472,0.732-1.1,0.732-1.768    s-0.26-1.296-0.732-1.767L46.682,6.95z M10.214,28.985l-7.007-7.008c0.571-0.571,1.199-1.199,1.857-1.857l7.103,6.912    L10.214,28.985z M44.924,24.252c-0.894,0-1.799,0.692-1.799,2.018v25.601H17.271V26.548c0-1.325-0.905-2.017-1.799-2.017    c-0.367,0-0.919,0.115-1.469,0.664l-1.128,1.129l-7.103-6.911C9.87,15.316,14.91,10.28,16.39,8.805h4.536    c0.993,2.835,4.76,4.813,9.18,4.813s8.188-1.978,9.18-4.813h4.628c0.162,0.002,0.531,0.155,0.647,0.268l10.473,10.472    l-7.103,6.911l-1.538-1.54C45.844,24.367,45.291,24.252,44.924,24.252z M50.46,28.985l-1.823-1.823l7.104-6.912l1.727,1.727    L50.46,28.985z"
   id="path1" />
	</g>
</g>
<path
   style="fill:#ffffff;stroke-width:0.991326"
   d="M 278.06691,403.24436 V 122.96952 l 3.71748,6.34431 c 4.47444,7.63617 14.17281,17.71585 23.29616,24.21207 l 6.69145,4.76461 v 262.61435 262.61435 h -16.85255 -16.85254 z"
   id="path4"
   transform="scale(0.0758425)" /><path
   style="fill:#ffffff;stroke-width:0.991326"
   d="m 339.52912,427.1554 c 0,-243.75979 0.0853,-256.32965 1.73482,-255.66905 6.89119,2.75974 24.41323,6.23249 40.1487,7.9572 l 5.70012,0.62477 v 251.72544 251.72545 h -23.79182 -23.79182 z"
   id="path5"
   transform="scale(0.0758425)" /><path
   style="fill:#ffffff;stroke-width:0.991326"
   d="m 414.86989,431.35482 v -252.1644 l 6.19579,-0.68755 c 8.77062,-0.97326 23.21698,-4.19489 31.60728,-7.04862 3.93462,-1.33825 7.52182,-2.43318 7.97155,-2.43318 0.44973,0 0.8177,115.76208 0.8177,257.24907 v 257.24907 h -23.29616 -23.29616 z"
   id="path6"
   transform="scale(0.0758425)" /><path
   style="fill:#0000ff;stroke-width:0.991326"
   d="M 88.956572,335.3011 43.111121,289.44769 54.87265,277.71681 66.634179,265.98592 112.62316,310.71909 c 25.29394,24.60323 46.10218,45.05882 46.24053,45.45686 0.13836,0.39803 -5.21892,6.18104 -11.90506,12.85112 l -12.15661,12.12743 z"
   id="path9"
   transform="scale(0.0758425)" /><path
   id="path10"
   style="fill:#0000ff;stroke-width:0.0751846"
   d="m 55.653138,20.200917 c -2.039309,1.970659 -4.072931,3.947209 -6.097033,5.933492 -0.350524,0.343411 -0.70103,0.686843 -1.051567,1.030242 0.647407,0.653319 1.294897,1.306558 1.942427,1.959758 2.390217,-2.389985 4.780527,-4.779874 7.170819,-7.169783 -0.619062,-0.619205 -1.238195,-1.238338 -1.8574,-1.8574 -0.03575,0.03456 -0.0715,0.06913 -0.107246,0.103691 z" /><path
   id="path11"
   style="fill:#0000ff;stroke-width:0.0751846"
   d="m 4.9595366,20.128037 c -0.609847,0.608027 -1.2196386,1.21611 -1.8294041,1.824219 2.3648658,2.365218 4.729667,4.7305 7.0945325,7.095718 0.673819,-0.677572 1.347478,-1.3553 2.021232,-2.032935 C 10.609761,25.449049 8.9929334,23.86306 7.3732121,22.28013 6.6039973,21.527521 5.8348654,20.774827 5.0655976,20.022272 c -0.035354,0.03525 -0.070707,0.07051 -0.106061,0.105765 z" /><path
   style="fill:#ffffff;stroke-width:0.991326"
   d="m 123.13387,300.98946 -46.382852,-45.22738 69.679012,-69.59879 69.67902,-69.5988 5.20446,-0.0419 5.20446,-0.0418 -0.0301,110.78067 c -0.0221,81.19922 -0.32166,110.25125 -1.12186,108.79802 -1.9828,-3.60092 -7.21254,-8.56772 -11.23957,-10.67444 -5.65782,-2.95987 -15.32188,-2.86103 -21.3135,0.218 -2.45353,1.26085 -8.69889,6.41475 -13.87857,11.45313 l -9.41759,9.16068 z"
   id="path12"
   transform="scale(0.0758425)" /><path
   style="fill:#ffffff;stroke-width:0.991326"
   d="M 254.27509,400 V 116.48079 l 10.65676,0.004 10.65675,0.004 1.83099,4.45236 c 4.57518,11.12529 15.32122,23.76956 27.72122,32.61802 l 6.63119,4.73191 v 262.61435 262.61435 h -28.74846 -28.74845 z"
   id="path13"
   transform="scale(0.0758425)" /><path
   style="fill:#ffffff;stroke-width:0.991326"
   d="m 339.52912,427.1554 c 0,-243.75979 0.0853,-256.32965 1.73482,-255.66905 6.89119,2.75974 24.41323,6.23249 40.1487,7.9572 l 5.70012,0.62477 v 251.72544 251.72545 h -23.79182 -23.79182 z"
   id="path14"
   transform="scale(0.0758425)" /><path
   style="fill:#ffffff;stroke-width:0.991326"
   d="m 414.86989,431.35482 v -252.1644 l 6.19579,-0.68755 c 8.77062,-0.97326 23.21698,-4.19489 31.60728,-7.04862 3.93462,-1.33825 7.52182,-2.43318 7.97155,-2.43318 0.44973,0 0.8177,115.76208 0.8177,257.24907 v 257.24907 h -23.29616 -23.29616 z"
   id="path15"
   transform="scale(0.0758425)" /><path
   style="fill:#ffffff;stroke-width:0.991326"
   d="M 489.21933,418.5254 V 153.53159 l 5.97686,-4.89467 c 7.78779,-6.37769 16.93513,-17.92011 20.462,-25.81959 l 2.80525,-6.28324 11.64808,-0.0267 11.64808,-0.0267 V 400 683.51921 h -26.27013 -26.27014 z"
   id="path16"
   transform="scale(0.0758425)" /><path
   style="fill:#ffffff;stroke-width:0.991326"
   d="M 620.06221,336.03584 C 606.43963,322.36078 601.91793,319.7026 592.2785,319.7026 c -8.14463,0 -13.892,2.73498 -18.54864,8.82668 l -3.22181,4.21469 V 224.61238 116.48079 l 4.7088,0.0218 c 2.58984,0.012 6.49319,0.85889 8.6741,1.88202 2.70279,1.26796 25.7864,23.74969 72.50058,70.6102 l 68.53528,68.74995 -45.96074,44.60238 c -25.27841,24.5313 -46.31062,44.719 -46.73824,44.86154 -0.42763,0.14255 -5.90216,-4.88522 -12.16562,-11.17281 z"
   id="path17"
   transform="scale(0.0758425)" /></svg>
