<?xml version="1.0" encoding="UTF-8" standalone="no"?>
<!-- Uploaded to: SVG Repo, www.svgrepo.com, Generator: SVG Repo Mixer Tools -->

<svg
   height="800px"
   width="800px"
   version="1.1"
   id="Capa_1"
   viewBox="0 0 60.674 60.674"
   xml:space="preserve"
   sodipodi:docname="BOU.svg"
   inkscape:version="1.4 (86a8ad7, 2024-10-11)"
   xmlns:inkscape="http://www.inkscape.org/namespaces/inkscape"
   xmlns:sodipodi="http://sodipodi.sourceforge.net/DTD/sodipodi-0.dtd"
   xmlns="http://www.w3.org/2000/svg"
   xmlns:svg="http://www.w3.org/2000/svg"><defs
   id="defs2" /><sodipodi:namedview
   id="namedview2"
   pagecolor="#ffffff"
   bordercolor="#000000"
   borderopacity="0.25"
   inkscape:showpageshadow="2"
   inkscape:pageopacity="0.0"
   inkscape:pagecheckerboard="0"
   inkscape:deskcolor="#d1d1d1"
   showgrid="false"
   inkscape:zoom="0.504375"
   inkscape:cx="445.10533"
   inkscape:cy="659.23172"
   inkscape:window-width="1920"
   inkscape:window-height="1009"
   inkscape:window-x="-8"
   inkscape:window-y="-8"
   inkscape:window-maximized="1"
   inkscape:current-layer="Capa_1" />
<g
   id="g2">
	<g
   id="g1">
		<path
   style="fill:#010002;"
   d="M46.682,6.95c-0.675-0.675-1.813-1.147-2.768-1.147h-5.818c-0.134,0-1.318,0.04-1.516,1.438    c-0.02,0.14-0.05,0.351-0.121,0.56c-0.473,1.384-2.979,2.815-6.353,2.815s-5.88-1.432-6.353-2.815    c-0.408-1.194-1.446-1.997-2.584-1.997h-5.397c-0.627,0-0.627,0-6.953,6.322l-8.086,8.082C0.261,20.68,0.001,21.308,0,21.975    c0,0.669,0.259,1.297,0.732,1.77l7.714,7.716c0.944,0.945,2.59,0.945,3.536,0l2.289-2.29v23.2c0,1.379,1.122,2.5,2.5,2.5h26.854    c1.378,0,2.5-1.121,2.5-2.5V28.892l2.568,2.568c0.944,0.945,2.591,0.945,3.535,0l7.714-7.716c0.472-0.472,0.732-1.1,0.732-1.768    s-0.26-1.296-0.732-1.767L46.682,6.95z M10.214,28.985l-7.007-7.008c0.571-0.571,1.199-1.199,1.857-1.857l7.103,6.912    L10.214,28.985z M44.924,24.252c-0.894,0-1.799,0.692-1.799,2.018v25.601H17.271V26.548c0-1.325-0.905-2.017-1.799-2.017    c-0.367,0-0.919,0.115-1.469,0.664l-1.128,1.129l-7.103-6.911C9.87,15.316,14.91,10.28,16.39,8.805h4.536    c0.993,2.835,4.76,4.813,9.18,4.813s8.188-1.978,9.18-4.813h4.628c0.162,0.002,0.531,0.155,0.647,0.268l10.473,10.472    l-7.103,6.911l-1.538-1.54C45.844,24.367,45.291,24.252,44.924,24.252z M50.46,28.985l-1.823-1.823l7.104-6.912l1.727,1.727    L50.46,28.985z"
   id="path1" />
	</g>
</g>
<path
   id="path4"
   style="fill:#ff0000;stroke-width:0.0751846"
   d="m 16.347656,8.6816406 c 0,5.4778644 0,10.9557294 0,16.4335934 1.049599,0.786625 0.511079,2.222889 0.642891,3.328906 0.01219,7.900131 0.02501,15.800261 0.0368,23.700391 3.285156,0 6.570312,0 9.855468,0 0,-13.048177 0,-26.096354 0,-39.144531 -2.388091,-0.640226 -4.931682,-1.989065 -5.779296,-4.4707031 -1.585287,0 -3.170573,0 -4.75586,0 v 0.1 z" /><path
   id="path5"
   style="fill:#ff0000;stroke-width:0.0751846"
   d="m 39.085938,8.6210938 c -0.83142,2.2856442 -3.121659,3.5937572 -5.332032,4.2695312 -0.01275,13.084636 -0.02638,26.169271 -0.03906,39.253906 3.235677,0 6.471354,0 9.707031,0 0.01257,-8.864583 0.02612,-17.729166 0.03906,-26.59375 0.294096,-0.624546 1.174581,-0.996848 0.943801,-1.822263 -0.01628,-5.052731 -0.02854,-10.105494 -0.04732,-15.1582055 -1.743473,-0.01447 -3.486977,-0.027243 -5.230469,-0.039063 z" /><path
   id="rect4"
   style="fill:#000000;stroke-width:0.0758425"
   d="m 26.462891,12.857422 c 0,13.483724 0,26.967448 0,40.451172 2.557942,0 5.115885,0 7.673828,0 0,-13.534505 0,-27.069011 0,-40.603516 -2.557943,0 -5.115886,0 -7.673828,0 v 0.1 z" /><path
   id="path6"
   style="fill:#ff0000;stroke-width:0.0751846"
   d="m 55.652344,20.201172 c -2.385,2.314834 -4.768717,4.637963 -7.146485,6.96289 0.646462,0.654309 1.293314,1.308245 1.941407,1.960938 2.390589,-2.390009 4.781285,-4.779913 7.171875,-7.169922 -0.619643,-0.61929 -1.239732,-1.238133 -1.859375,-1.857422 l -0.07201,0.06939 z" /><path
   id="path7"
   style="fill:#ff0000;stroke-width:0.0751846"
   d="m 4.9453125,20.066406 c -0.6299221,0.629193 -1.2607066,1.257522 -1.890625,1.886719 2.3909525,2.389644 4.779301,4.781915 7.1718745,7.169922 0.659259,-0.718366 1.446291,-1.324818 1.996094,-2.138672 C 9.8625405,24.612253 7.4489828,22.294316 5.0507812,19.960938 l -0.070711,0.07071 z" /><path
   id="path8"
   style="fill:#000000;stroke-width:0.0751846"
   d="M 16.357422,8.4726562 C 12.701588,12.116954 9.0430313,15.758525 5.3867188,19.402344 c 2.4905564,2.425428 4.9796552,4.852366 7.4687502,7.279297 0.863022,-0.721261 1.605491,-2.018793 2.90039,-1.835938 0.508377,0.388801 1.099803,-0.25896 0.894133,-0.791796 -0.01087,-5.279689 -0.01995,-10.559386 -0.03476,-15.8390632 -0.08594,0.085937 -0.171875,0.171875 -0.257812,0.2578124 z" /><path
   id="path9"
   style="fill:#000000;stroke-width:0.0751846"
   d="m 44.166016,8.6582031 c 0,5.3131509 0,10.6263019 0,15.9394529 1.401018,-0.420649 2.44212,0.835275 3.265625,1.753906 0.546568,0.536521 1.173657,-0.145452 1.521484,-0.564453 2.184829,-2.048249 4.29735,-4.1736 6.447266,-6.259765 -3.743152,-3.746413 -7.487965,-7.491213 -11.234375,-11.2343752 0,0.1217447 0,0.2434895 0,0.3652343 z" /></svg>
