<?xml version="1.0" encoding="UTF-8" standalone="no"?>
<!-- Uploaded to: SVG Repo, www.svgrepo.com, Generator: SVG Repo Mixer Tools -->

<svg
   height="800px"
   width="800px"
   version="1.1"
   id="Capa_1"
   viewBox="0 0 60.674 60.674"
   xml:space="preserve"
   sodipodi:docname="BRE.svg"
   inkscape:version="1.2.2 (b0a8486541, 2022-12-01)"
   xmlns:inkscape="http://www.inkscape.org/namespaces/inkscape"
   xmlns:sodipodi="http://sodipodi.sourceforge.net/DTD/sodipodi-0.dtd"
   xmlns="http://www.w3.org/2000/svg"
   xmlns:svg="http://www.w3.org/2000/svg"><defs
   id="defs2" /><sodipodi:namedview
   id="namedview2"
   pagecolor="#ffffff"
   bordercolor="#000000"
   borderopacity="0.25"
   inkscape:showpageshadow="2"
   inkscape:pageopacity="0.0"
   inkscape:pagecheckerboard="true"
   inkscape:deskcolor="#d1d1d1"
   inkscape:zoom="1.4265879"
   inkscape:cx="450.02483"
   inkscape:cy="521.17362"
   inkscape:window-width="1854"
   inkscape:window-height="1011"
   inkscape:window-x="1746"
   inkscape:window-y="32"
   inkscape:window-maximized="1"
   inkscape:current-layer="Capa_1"
   showgrid="false" />
<rect
   style="fill:#ff0000;stroke-width:0.0775593"
   id="rect1"
   width="5.338109"
   height="42.930424"
   x="21.502806"
   y="10.149925"
   ry="0.078627147" /><rect
   style="fill:#ff0000;stroke-width:0.0774234"
   id="rect1-1"
   width="5.338109"
   height="42.780056"
   x="33.15041"
   y="10.240243"
   ry="0.078351751" /><g
   id="g2">
	<g
   id="g1">
		<path
   style="fill:#010002;"
   d="M46.682,6.95c-0.675-0.675-1.813-1.147-2.768-1.147h-5.818c-0.134,0-1.318,0.04-1.516,1.438    c-0.02,0.14-0.05,0.351-0.121,0.56c-0.473,1.384-2.979,2.815-6.353,2.815s-5.88-1.432-6.353-2.815    c-0.408-1.194-1.446-1.997-2.584-1.997h-5.397c-0.627,0-0.627,0-6.953,6.322l-8.086,8.082C0.261,20.68,0.001,21.308,0,21.975    c0,0.669,0.259,1.297,0.732,1.77l7.714,7.716c0.944,0.945,2.59,0.945,3.536,0l2.289-2.29v23.2c0,1.379,1.122,2.5,2.5,2.5h26.854    c1.378,0,2.5-1.121,2.5-2.5V28.892l2.568,2.568c0.944,0.945,2.591,0.945,3.535,0l7.714-7.716c0.472-0.472,0.732-1.1,0.732-1.768    s-0.26-1.296-0.732-1.767L46.682,6.95z M10.214,28.985l-7.007-7.008c0.571-0.571,1.199-1.199,1.857-1.857l7.103,6.912    L10.214,28.985z M44.924,24.252c-0.894,0-1.799,0.692-1.799,2.018v25.601H17.271V26.548c0-1.325-0.905-2.017-1.799-2.017    c-0.367,0-0.919,0.115-1.469,0.664l-1.128,1.129l-7.103-6.911C9.87,15.316,14.91,10.28,16.39,8.805h4.536    c0.993,2.835,4.76,4.813,9.18,4.813s8.188-1.978,9.18-4.813h4.628c0.162,0.002,0.531,0.155,0.647,0.268l10.473,10.472    l-7.103,6.911l-1.538-1.54C45.844,24.367,45.291,24.252,44.924,24.252z M50.46,28.985l-1.823-1.823l7.104-6.912l1.727,1.727    L50.46,28.985z"
   id="path1" />
	</g>
</g>
<rect
   style="fill:#000000;stroke-width:0.0758425"
   id="rect2"
   width="0.67666173"
   height="16.991728"
   x="16.390251"
   y="8.495863"
   ry="0.075184636" /><rect
   style="fill:#000000;stroke-width:0.0758425"
   id="rect2-9"
   width="0.67666173"
   height="16.991728"
   x="43.765072"
   y="8.4785709"
   ry="0.075184636" /><path
   id="path3"
   style="fill:#ff0000;stroke-width:0.0751846"
   d="M 16.207928,8.8395025 C 12.673672,12.359292 9.1392139,15.878876 5.6050866,19.398793 c 2.4171372,2.356941 4.8341474,4.714012 7.2514014,7.070832 0.393901,-0.378667 0.778268,-0.76743 1.180627,-1.13718 0.270397,-0.240464 0.554317,-0.489464 0.906672,-0.598162 0.293477,-0.0828 0.60515,-0.07341 0.904718,-0.03293 0.09719,0.01159 0.191293,0.03913 0.276618,0.0873 0.09445,0.04211 0.216931,0.07781 0.304306,0.0014 0.05128,-0.01558 0.03586,-0.0747 0.04558,-0.11618 0.01455,-0.667315 0.01142,-1.334954 0.01437,-2.002418 0.0069,-4.162721 -0.01132,-8.325426 -0.01963,-12.488132 -0.0013,-0.5335008 -0.0026,-1.067002 -0.0039,-1.6005031 -0.08596,0.085569 -0.17193,0.1711393 -0.257894,0.2567086 z" /><path
   id="path4"
   style="fill:#ff0000;stroke-width:0.0751846"
   d="m 44.320017,9.0225909 c 0,5.1253931 0,10.2507861 0,15.3761781 0.276311,0.0038 0.553122,-0.0083 0.829092,0.0077 0.286335,0.01689 0.557592,0.134383 0.787453,0.302005 0.39333,0.283952 0.730407,0.63592 1.074451,0.975704 0.265487,0.261542 0.525889,0.529125 0.806126,0.774997 0.03677,0.03003 0.08251,0.04598 0.123468,0.06942 0.162684,-0.103718 0.291277,-0.250315 0.434531,-0.377837 1.380593,-1.314334 2.745496,-2.645238 4.10988,-3.976439 0.902715,-0.881886 1.801963,-1.767313 2.702251,-2.651675 -3.622552,-3.621937 -7.244833,-7.244146 -10.867252,-10.8662158 0,0.1220586 0,0.244118 0,0.3661767 z" /><path
   style="fill:#000000;stroke-width:0.991326"
   d="M 88.956572,335.3011 43.111121,289.44769 54.87265,277.71681 66.634179,265.98592 112.62316,310.71909 c 25.29394,24.60323 46.10218,45.05882 46.24053,45.45686 0.13836,0.39803 -5.21892,6.18104 -11.90506,12.85112 l -12.15661,12.12743 z"
   id="path5"
   transform="scale(0.0758425)" /><path
   id="path6"
   style="fill:#000000;stroke-width:0.0751846"
   d="m 55.653138,20.200917 c -2.039309,1.970659 -4.072931,3.947209 -6.097033,5.933492 -0.350524,0.343411 -0.70103,0.686843 -1.051567,1.030242 0.647407,0.653319 1.294897,1.306558 1.942427,1.959758 2.390217,-2.389985 4.780527,-4.779874 7.170819,-7.169783 -0.619062,-0.619205 -1.238195,-1.238338 -1.8574,-1.8574 -0.03575,0.03456 -0.0715,0.06913 -0.107246,0.103691 z" /><path
   id="path7"
   style="fill:#000000;stroke-width:0.0751846"
   d="m 4.9595366,20.128037 c -0.609847,0.608027 -1.2196386,1.21611 -1.8294041,1.824219 2.3652843,2.366133 4.7303609,4.732473 7.0955695,7.09868 0.673441,-0.680812 1.346815,-1.361691 2.020195,-2.042562 -0.748857,-0.712921 -1.494707,-1.428947 -2.234698,-2.151073 -1.6526979,-1.60746 -3.2977963,-3.222707 -4.9456014,-4.835178 -0.035354,0.03531 -0.070707,0.07061 -0.106061,0.105914 z" /><path
   style="fill:#ffffff;fill-opacity:0.761766;stroke-width:0.991326"
   d="m 228.00496,513.63145 c 0,-148.47731 -0.1874,-170.4189 -1.48699,-174.10233 -1.28733,-3.64868 -1.48699,-18.90603 -1.48699,-113.63145 V 116.48079 l 25.03098,0.004 25.03098,0.004 4.21313,8.24949 4.21314,8.24949 v 275.26524 275.26523 h -27.75713 -27.75712 z"
   id="path7627"
   transform="scale(0.0758425)" /><path
   style="fill:#ffffff;fill-opacity:0.761766;stroke-width:0.991326"
   d="m 353.90335,429.13805 c 0,-225.93179 0.16662,-254.31721 1.48992,-253.80941 12.81707,4.91837 63.3109,5.55723 79.0553,1.00022 1.64901,-0.47728 1.73483,12.0554 1.73483,253.34411 v 253.84624 h -41.14003 -41.14002 z"
   id="path7629"
   transform="scale(0.0758425)" /><path
   style="fill:#ffffff;fill-opacity:0.761766;stroke-width:0.991326"
   d="M 507.55886,409.84404 V 136.16887 l 3.04318,-4.42311 c 1.67375,-2.43271 4.15998,-6.86253 5.52496,-9.84404 l 2.48179,-5.42093 h 29.17144 29.17144 v 104.20618 104.20618 l -2.93142,3.33871 c -6.3379,7.21847 -5.99051,-3.47852 -5.99051,184.46356 V 683.51921 H 537.7943 507.55886 Z"
   id="path7660"
   transform="scale(0.0758425)" /><path
   style="fill:#ffffff;fill-opacity:0.761766;stroke-width:0.700973"
   d="m 227.64803,512.5867 c -0.16001,-150.35687 -0.31029,-171.51157 -1.23367,-173.66613 -0.92231,-2.15207 -1.0294,-15.94877 -0.87187,-112.33096 l 0.17959,-109.87756 h 25.09222 25.09222 l 1.23546,3.4357 c 0.6795,1.88963 2.61601,5.67489 4.30336,8.41168 1.68734,2.73679 2.77088,4.97598 2.40787,4.97598 -0.41158,0 -0.66001,103.55991 -0.66001,275.132 v 275.13201 h -27.68148 -27.68148 z"
   id="path193"
   transform="scale(0.0758425)" /><path
   style="fill:#ffffff;fill-opacity:0.761766;stroke-width:0.700973"
   d="m 353.9915,429.27113 c 0,-233.83645 0.0919,-254.49304 1.13015,-254.09461 2.25809,0.86651 16.93133,3.2113 24.45537,3.90798 9.89391,0.91612 25.53313,0.91409 34.79915,-0.005 7.1439,-0.70823 18.70076,-2.46205 21.10347,-3.20258 1.16673,-0.35959 1.2267,12.0476 1.2267,253.77197 V 683.79942 H 395.34892 353.9915 Z"
   id="path195"
   transform="scale(0.0758425)" /><path
   style="fill:#ffffff;fill-opacity:0.761766;stroke-width:0.700973"
   d="M 507.50464,410.00806 V 136.21671 l 3.45329,-5.26023 c 1.89931,-2.89313 4.31242,-7.28168 5.36246,-9.75234 l 1.90917,-4.49209 h 29.33572 29.33571 v 104.17723 104.17724 l -2.20728,2.51395 c -1.21401,1.38269 -3.02778,4.26326 -4.0306,6.4013 l -1.82331,3.88734 -0.18214,172.96515 -0.18214,172.96516 h -30.48544 -30.48544 z"
   id="path197"
   transform="scale(0.0758425)" /><path
   style="fill:#ffffff;fill-opacity:0.761766;stroke-width:0.700973"
   d="m 507.50642,409.89411 0.002,-273.9053 3.4986,-5.25708 c 1.92423,-2.8914 4.33654,-7.22867 5.36068,-9.63838 l 1.86208,-4.3813 h 29.33572 29.33571 v 104.17723 104.17724 l -2.20728,2.51395 c -1.21401,1.38269 -3.02778,4.26326 -4.0306,6.4013 l -1.82331,3.88734 -0.18214,172.96515 -0.18214,172.96516 H 537.9903 507.50486 Z"
   id="path199"
   transform="scale(0.0758425)" /><path
   style="fill:#ffffff;fill-opacity:0.761766;stroke-width:0.700973"
   d="m 507.50642,409.89411 0.002,-273.9053 3.4986,-5.25708 c 1.92423,-2.8914 4.33654,-7.22867 5.36068,-9.63838 l 1.86208,-4.3813 h 29.33572 29.33571 v 104.17723 104.17724 l -2.20728,2.51395 c -1.21401,1.38269 -3.02778,4.26326 -4.0306,6.4013 l -1.82331,3.88734 -0.18214,172.96515 -0.18214,172.96516 H 537.9903 507.50486 Z"
   id="path201"
   transform="scale(0.0758425)" /><path
   style="fill:#ffffff;fill-opacity:0.761766;stroke-width:0.700973"
   d="M 507.50464,409.98588 V 136.17234 l 3.79478,-6.05004 c 2.08713,-3.32752 4.49176,-7.70608 5.34362,-9.73014 l 1.54884,-3.68011 h 29.35456 29.35455 v 104.17723 104.17724 l -2.20728,2.51395 c -1.21401,1.38269 -3.02778,4.26326 -4.0306,6.4013 l -1.82331,3.88734 -0.18214,172.96515 -0.18214,172.96516 h -30.48544 -30.48544 z"
   id="path203"
   transform="scale(0.0758425)" /><path
   style="fill:#ffffff;fill-opacity:0.761766;stroke-width:0.700973"
   d="m 353.9915,429.29888 c 0,-247.18606 0.0372,-254.48871 1.29514,-254.08946 7.0767,2.24606 27.95418,4.57285 41.11374,4.58213 13.1804,0.009 32.68914,-1.94469 39.07926,-3.91415 1.16673,-0.35959 1.2267,12.0476 1.2267,253.77197 V 683.79942 H 395.34892 353.9915 Z"
   id="path205"
   transform="scale(0.0758425)" /><path
   style="fill:#ffffff;fill-opacity:0.761766;stroke-width:0.700973"
   d="m 353.9915,429.27113 c 0,-240.84805 0.0651,-254.50332 1.21082,-254.06366 5.28495,2.02803 28.6442,4.58656 41.89903,4.58919 12.54126,0.002 32.15152,-2.00014 38.37829,-3.91926 1.16673,-0.35959 1.2267,12.0476 1.2267,253.77197 V 683.79942 H 395.34892 353.9915 Z"
   id="path207"
   transform="scale(0.0758425)" /><path
   style="fill:#ffffff;fill-opacity:0.761766;stroke-width:0.700973"
   d="m 227.81631,514.31665 c 0,-149.61058 -0.12512,-169.93218 -1.06712,-173.31564 -0.93296,-3.35104 -1.07294,-17.18284 -1.11353,-110.03032 -0.0255,-58.4086 -0.0185,-108.01122 0.0157,-110.22805 l 0.0621,-4.03059 h 25.09656 25.09657 l 1.23546,3.4357 c 0.6795,1.88963 2.61279,5.66966 4.29619,8.40005 1.6834,2.73039 2.76694,5.14592 2.40788,5.36784 -0.40136,0.24805 -0.65285,106.24129 -0.65285,275.14363 v 274.74015 h -27.68845 -27.68844 z"
   id="path209"
   transform="scale(0.0758425)" /><path
   style="fill:#ffffff;fill-opacity:0.761766;stroke-width:0.700973"
   d="M 227.8017,515.0401 C 227.78913,369.78414 227.64476,345.64623 226.76512,341.72446 225.9012,337.87278 225.6941,320.1213 225.426,226.94009 l -0.31714,-110.22804 h 25.5373 c 19.96174,0 25.53763,0.1913 25.53879,0.87621 0.002,1.05259 5.22229,11.32124 7.10237,13.97026 0.82816,1.16686 1.06285,2.04555 0.61954,2.31953 -0.48227,0.29806 -0.71366,89.52038 -0.71366,275.18122 v 274.74015 h -27.68845 -27.68844 z"
   id="path211"
   transform="scale(0.0758425)" /><path
   style="fill:#ffffff;fill-opacity:0.761766;stroke-width:0.700973"
   d="m 507.51964,409.89411 0.015,-273.9053 3.18146,-4.90681 c 1.7498,-2.69875 4.16918,-7.03602 5.37639,-9.63838 l 2.19495,-4.73157 h 29.30678 29.30677 v 104.17723 104.17724 l -2.20728,2.51395 c -1.21401,1.38269 -3.02778,4.26326 -4.0306,6.4013 l -1.82331,3.88734 -0.18214,172.96515 -0.18214,172.96516 h -30.48544 -30.48544 z"
   id="path213"
   transform="scale(0.0758425)" /><path
   style="fill:#ffffff;fill-opacity:0.761766;stroke-width:0.700973"
   d="m 507.51964,409.89411 0.015,-273.9053 3.06079,-4.72417 c 1.68344,-2.5983 4.09835,-6.93557 5.36646,-9.63839 l 2.30567,-4.9142 h 29.31672 29.31671 v 104.1518 104.1518 l -2.41301,2.94477 c -1.32716,1.61962 -3.14093,4.51165 -4.0306,6.42673 l -1.61758,3.48196 -0.18214,172.96515 -0.18214,172.96516 h -30.48544 -30.48544 z"
   id="path215"
   transform="scale(0.0758425)" /></svg>
