<?xml version="1.0" encoding="UTF-8" standalone="no"?>
<!-- Uploaded to: SVG Repo, www.svgrepo.com, Generator: SVG Repo Mixer Tools -->

<svg
   height="800px"
   width="800px"
   version="1.1"
   id="Capa_1"
   viewBox="0 0 60.674 60.674"
   xml:space="preserve"
   sodipodi:docname="CRY.svg"
   inkscape:version="1.4 (86a8ad7, 2024-10-11)"
   xmlns:inkscape="http://www.inkscape.org/namespaces/inkscape"
   xmlns:sodipodi="http://sodipodi.sourceforge.net/DTD/sodipodi-0.dtd"
   xmlns="http://www.w3.org/2000/svg"
   xmlns:svg="http://www.w3.org/2000/svg"><defs
   id="defs2" /><sodipodi:namedview
   id="namedview2"
   pagecolor="#ffffff"
   bordercolor="#000000"
   borderopacity="0.25"
   inkscape:showpageshadow="2"
   inkscape:pageopacity="0.0"
   inkscape:pagecheckerboard="0"
   inkscape:deskcolor="#d1d1d1"
   showgrid="false"
   inkscape:zoom="1.00875"
   inkscape:cx="400"
   inkscape:cy="400"
   inkscape:window-width="1920"
   inkscape:window-height="1009"
   inkscape:window-x="-8"
   inkscape:window-y="-8"
   inkscape:window-maximized="1"
   inkscape:current-layer="Capa_1" />
<rect
   style="fill:#800000;stroke-width:0.0758425"
   id="rect4"
   width="6.1651402"
   height="39.998226"
   x="27.066467"
   y="12.330279"
   ry="0.075184636" /><g
   id="g2">
	<g
   id="g1">
		<path
   style="fill:#010002;"
   d="M46.682,6.95c-0.675-0.675-1.813-1.147-2.768-1.147h-5.818c-0.134,0-1.318,0.04-1.516,1.438    c-0.02,0.14-0.05,0.351-0.121,0.56c-0.473,1.384-2.979,2.815-6.353,2.815s-5.88-1.432-6.353-2.815    c-0.408-1.194-1.446-1.997-2.584-1.997h-5.397c-0.627,0-0.627,0-6.953,6.322l-8.086,8.082C0.261,20.68,0.001,21.308,0,21.975    c0,0.669,0.259,1.297,0.732,1.77l7.714,7.716c0.944,0.945,2.59,0.945,3.536,0l2.289-2.29v23.2c0,1.379,1.122,2.5,2.5,2.5h26.854    c1.378,0,2.5-1.121,2.5-2.5V28.892l2.568,2.568c0.944,0.945,2.591,0.945,3.535,0l7.714-7.716c0.472-0.472,0.732-1.1,0.732-1.768    s-0.26-1.296-0.732-1.767L46.682,6.95z M10.214,28.985l-7.007-7.008c0.571-0.571,1.199-1.199,1.857-1.857l7.103,6.912    L10.214,28.985z M44.924,24.252c-0.894,0-1.799,0.692-1.799,2.018v25.601H17.271V26.548c0-1.325-0.905-2.017-1.799-2.017    c-0.367,0-0.919,0.115-1.469,0.664l-1.128,1.129l-7.103-6.911C9.87,15.316,14.91,10.28,16.39,8.805h4.536    c0.993,2.835,4.76,4.813,9.18,4.813s8.188-1.978,9.18-4.813h4.628c0.162,0.002,0.531,0.155,0.647,0.268l10.473,10.472    l-7.103,6.911l-1.538-1.54C45.844,24.367,45.291,24.252,44.924,24.252z M50.46,28.985l-1.823-1.823l7.104-6.912l1.727,1.727    L50.46,28.985z"
   id="path1" />
	</g>
</g>
<path
   id="path5"
   style="fill:#0000ff;stroke-width:0.0751846"
   d="m 20.901127,8.6830774 c -1.524553,0.00208 -3.049106,0.00389 -4.573659,0.00593 C 12.753296,12.25899 9.1790775,15.828928 5.6049385,19.398946 c 2.4231206,2.359454 4.8465125,4.718629 7.2697705,7.077942 0.319266,-0.316847 0.630651,-0.641764 0.955518,-0.952885 0.24947,-0.230139 0.503231,-0.459247 0.78797,-0.645437 0.22762,-0.132886 0.488309,-0.208146 0.751612,-0.21864 0.02938,-0.0016 0.088,-0.0021 0.128724,-2.96e-4 0.568661,0.01802 1.111693,0.34322 1.406995,0.827752 0.07553,0.123919 0.14896,0.255699 0.156419,0.404147 0.0066,0.05536 0.01153,0.10867 0.015,0.156422 0.03101,0.463598 0.0342,0.924696 0.04254,1.390837 0.02363,1.847109 0.02487,3.694419 0.03017,5.541649 0.01378,6.337021 0.02077,12.674055 0.03149,19.011082 3.33312,0 6.666239,0 9.999359,0 -6.74e-4,-8.521547 0.0016,-17.043094 -0.0016,-25.56464 -0.0029,-3.186592 -0.0033,-6.373204 -0.01918,-9.559764 -0.0077,-1.054014 -0.0091,-2.108285 -0.03956,-3.161937 -0.0092,-0.144915 -0.0023,-0.293482 -0.0377,-0.43501 -0.01739,-0.05339 -0.06191,-0.10004 -0.119757,-0.106403 -0.525462,-0.151564 -1.046469,-0.319021 -1.5568,-0.506803 -0.220866,-0.08197 -0.445581,-0.169496 -0.655311,-0.261634 -0.233767,-0.10089 -0.47195,-0.225359 -0.686597,-0.34481 -0.853075,-0.481717 -1.6419,-1.098212 -2.24979,-1.87132 -0.287928,-0.3648783 -0.525112,-0.7702762 -0.691418,-1.204743 -0.03997,-0.097171 -0.07997,-0.1943327 -0.119897,-0.2915211 -0.03392,4.93e-5 -0.06784,9.86e-5 -0.101764,1.479e-4 z" /><path
   id="path6"
   style="fill:#0000ff;stroke-width:0.0751846"
   d="m 39.321522,8.6864842 c -0.04455,0.00526 -0.109822,-0.021448 -0.11691,0.041553 -0.162251,0.3556429 -0.303854,0.7234449 -0.520493,1.0510534 -0.470523,0.7265424 -1.116253,1.3246774 -1.819071,1.8227894 -0.417199,0.291625 -0.856048,0.554584 -1.317904,0.769143 -0.392106,0.171546 -0.79427,0.318326 -1.194906,0.45933 -0.303859,0.1026 -0.606911,0.211783 -0.920213,0.282252 -0.07015,0.0018 -0.14445,0.02428 -0.180872,0.08954 -0.06375,0.122117 -0.05618,0.266024 -0.06968,0.399806 -0.03341,0.669894 -0.03358,1.340946 -0.04136,2.011517 -0.01947,2.633248 -0.01813,5.266596 -0.02052,7.8999 -0.0038,7.663005 -0.0013,15.326012 -0.002,22.989017 0,1.829711 0,3.659421 0,5.489131 3.383533,0 6.767067,0 10.1506,0 0.01322,-8.824196 0.02623,-17.648392 0.03955,-26.472587 0.184882,-0.293636 0.349621,-0.614999 0.632663,-0.828639 0.263613,-0.206443 0.60484,-0.276243 0.932868,-0.283246 0.277774,-0.01577 0.56965,0.0023 0.817165,0.142081 0.324226,0.179427 0.590905,0.442247 0.860236,0.692677 0.460757,0.442984 0.913871,0.893853 1.371314,1.340254 0.928702,-0.882465 1.853576,-1.768899 2.772961,-2.661083 1.502516,-1.454153 2.999684,-2.913814 4.498883,-4.371383 C 52.96166,17.31169 50.733002,15.070119 48.498197,12.835027 47.396464,11.737871 46.297713,10.63747 45.173417,9.5634404 44.926942,9.3336847 44.68702,9.095339 44.421659,8.8871225 44.223499,8.7518567 43.974929,8.7299336 43.74206,8.7130518 43.166991,8.6815378 42.590647,8.690017 42.014938,8.6865654 c -0.897805,-7.926e-4 -1.795611,2.88e-5 -2.693416,-8.12e-5 z" /><path
   id="path7"
   style="fill:#800000;stroke-width:0.0751846"
   d="m 4.9466493,20.065674 c -0.6305411,0.628859 -1.2610687,1.257732 -1.8916186,1.886582 2.3895538,2.389906 4.7790437,4.779876 7.1685973,7.169783 0.5217,-0.524843 1.053706,-1.039629 1.564587,-1.5751 0.131749,-0.144622 0.274362,-0.281717 0.386135,-0.442873 0.02934,-0.04346 0.03191,-0.102814 0.02303,-0.150606 C 12.018902,26.751195 11.819633,26.568342 11.630439,26.376235 9.8014615,24.571648 7.9545138,22.785406 6.113926,20.992691 5.7600838,20.648534 5.4062871,20.30433 5.0524141,19.960206 c -0.035255,0.03516 -0.07051,0.07031 -0.1057648,0.105468 z" /><path
   id="path8"
   style="fill:#800000;stroke-width:0.0751846"
   d="m 55.653138,20.200917 c -2.039309,1.970659 -4.072931,3.947209 -6.097033,5.933492 -0.350524,0.343411 -0.70103,0.686843 -1.051567,1.030242 0.647407,0.653319 1.294897,1.306558 1.942427,1.959758 2.390217,-2.389985 4.780527,-4.779874 7.170819,-7.169783 -0.619062,-0.619205 -1.238195,-1.238338 -1.8574,-1.8574 -0.03575,0.03456 -0.0715,0.06913 -0.107246,0.103691 z" /></svg>
