<?xml version="1.0" encoding="UTF-8" standalone="no"?>
<!-- Uploaded to: SVG Repo, www.svgrepo.com, Generator: SVG Repo Mixer Tools -->

<svg
   height="800px"
   width="800px"
   version="1.1"
   id="Capa_1"
   viewBox="0 0 60.674 60.674"
   xml:space="preserve"
   sodipodi:docname="FUL.svg"
   inkscape:version="1.4 (86a8ad7, 2024-10-11)"
   xmlns:inkscape="http://www.inkscape.org/namespaces/inkscape"
   xmlns:sodipodi="http://sodipodi.sourceforge.net/DTD/sodipodi-0.dtd"
   xmlns="http://www.w3.org/2000/svg"
   xmlns:svg="http://www.w3.org/2000/svg"><defs
   id="defs2" /><sodipodi:namedview
   id="namedview2"
   pagecolor="#ffffff"
   bordercolor="#000000"
   borderopacity="0.25"
   inkscape:showpageshadow="2"
   inkscape:pageopacity="0.0"
   inkscape:pagecheckerboard="0"
   inkscape:deskcolor="#d1d1d1"
   showgrid="false"
   inkscape:zoom="1.00875"
   inkscape:cx="400"
   inkscape:cy="400"
   inkscape:window-width="1920"
   inkscape:window-height="1009"
   inkscape:window-x="-8"
   inkscape:window-y="-8"
   inkscape:window-maximized="1"
   inkscape:current-layer="Capa_1" />
<g
   id="g2">
	<g
   id="g1">
		<path
   style="fill:#010002;"
   d="M46.682,6.95c-0.675-0.675-1.813-1.147-2.768-1.147h-5.818c-0.134,0-1.318,0.04-1.516,1.438    c-0.02,0.14-0.05,0.351-0.121,0.56c-0.473,1.384-2.979,2.815-6.353,2.815s-5.88-1.432-6.353-2.815    c-0.408-1.194-1.446-1.997-2.584-1.997h-5.397c-0.627,0-0.627,0-6.953,6.322l-8.086,8.082C0.261,20.68,0.001,21.308,0,21.975    c0,0.669,0.259,1.297,0.732,1.77l7.714,7.716c0.944,0.945,2.59,0.945,3.536,0l2.289-2.29v23.2c0,1.379,1.122,2.5,2.5,2.5h26.854    c1.378,0,2.5-1.121,2.5-2.5V28.892l2.568,2.568c0.944,0.945,2.591,0.945,3.535,0l7.714-7.716c0.472-0.472,0.732-1.1,0.732-1.768    s-0.26-1.296-0.732-1.767L46.682,6.95z M10.214,28.985l-7.007-7.008c0.571-0.571,1.199-1.199,1.857-1.857l7.103,6.912    L10.214,28.985z M44.924,24.252c-0.894,0-1.799,0.692-1.799,2.018v25.601H17.271V26.548c0-1.325-0.905-2.017-1.799-2.017    c-0.367,0-0.919,0.115-1.469,0.664l-1.128,1.129l-7.103-6.911C9.87,15.316,14.91,10.28,16.39,8.805h4.536    c0.993,2.835,4.76,4.813,9.18,4.813s8.188-1.978,9.18-4.813h4.628c0.162,0.002,0.531,0.155,0.647,0.268l10.473,10.472    l-7.103,6.911l-1.538-1.54C45.844,24.367,45.291,24.252,44.924,24.252z M50.46,28.985l-1.823-1.823l7.104-6.912l1.727,1.727    L50.46,28.985z"
   id="path1" />
	</g>
</g>
<path
   style="fill:#ffffff;stroke-width:0.991326"
   d="m 228.26928,512.76332 c -0.25077,-162.00288 -0.35582,-170.95915 -2.04938,-174.72119 -5.96772,-13.25656 -21.59495,-18.78303 -33.99701,-12.02281 -2.77802,1.51427 -8.97451,6.69505 -13.76997,11.51283 l -8.71903,8.75961 -46.4917,-45.26484 -46.491696,-45.26484 69.679276,-69.59879 69.67928,-69.5988 29.73977,-0.0381 29.73978,-0.0381 1.83099,4.45236 c 20.30439,49.37342 108.42415,73.77046 178.43397,49.40164 28.42479,-9.89402 51.01409,-27.83858 59.79234,-47.49805 l 2.81754,-6.31008 30.73111,-0.005 c 27.99356,-0.004 31.08433,0.16083 34.6964,1.85536 2.70356,1.26832 25.76828,23.73632 72.48552,70.6102 l 68.5202,68.74995 -33.63249,32.71376 c -18.49788,17.99256 -39.4265,38.23459 -46.50806,44.98226 l -12.87555,12.2685 -12.59456,-12.34947 c -14.72889,-14.44228 -17.84661,-16.11629 -28.85669,-15.49416 -8.45448,0.47772 -13.79435,3.72326 -18.41082,11.18999 l -2.99743,4.84808 -0.25874,173.80775 -0.25874,173.80777 H 398.51859 228.5336 Z"
   id="path2"
   transform="scale(0.0758425)" /><path
   style="fill:#ffffff;stroke-width:0.991326"
   d="M 88.956572,335.3011 43.111121,289.44769 54.87265,277.71681 66.634179,265.98592 112.62316,310.71909 c 25.29394,24.60323 46.10218,45.05882 46.24053,45.45686 0.13836,0.39803 -5.21892,6.18104 -11.90506,12.85112 l -12.15661,12.12743 z"
   id="path3"
   transform="scale(0.0758425)" /><path
   style="fill:#ff0000;stroke-width:0.991326"
   d="m 653.76936,369.68487 -11.39018,-11.49218 24.28749,-23.79396 c 13.35811,-13.08668 34.2404,-33.42725 46.40507,-45.20125 l 22.1176,-21.40729 10.84323,10.84324 10.84325,10.84324 -45.85815,45.85018 -45.85814,45.85019 z"
   id="path4"
   transform="scale(0.0758425)" /><path
   id="path5"
   style="fill:#ff0000;stroke-width:0.0751846"
   d="m 4.9530189,20.059304 c -0.6327577,0.630889 -1.2653691,1.261924 -1.8979882,1.892952 2.3898148,2.390287 4.7795959,4.780608 7.1694863,7.17082 0.698807,-0.701021 1.397722,-1.401933 2.096482,-2.103001 -1.583571,-1.523402 -3.1528504,-3.061557 -4.7274507,-4.594208 -0.8448767,-0.824055 -1.6897152,-1.64815 -2.5346165,-2.472179 -0.035304,0.03521 -0.070609,0.07041 -0.1059129,0.105616 z" /><path
   id="path6"
   style="fill:#ff0000;stroke-width:0.0751846"
   d="m 55.653286,20.27587 c -1.320654,1.270812 -2.637605,2.545239 -3.948381,3.826323 -1.043136,1.019259 -2.08345,2.041402 -3.125117,3.062161 0.622033,0.628575 1.244704,1.256519 1.86688,1.884953 2.365352,-2.36488 4.730739,-4.729725 7.096014,-7.094681 -0.59405,-0.59405 -1.1881,-1.1881 -1.78215,-1.78215 -0.03575,0.03446 -0.0715,0.06893 -0.107246,0.103394 z" /></svg>
