<?xml version="1.0" encoding="UTF-8" standalone="no"?>
<!-- Uploaded to: SVG Repo, www.svgrepo.com, Generator: SVG Repo Mixer Tools -->

<svg
   height="800px"
   width="800px"
   version="1.1"
   id="Capa_1"
   viewBox="0 0 60.674 60.674"
   xml:space="preserve"
   sodipodi:docname="IPS.svg"
   inkscape:version="1.4 (86a8ad7, 2024-10-11)"
   xmlns:inkscape="http://www.inkscape.org/namespaces/inkscape"
   xmlns:sodipodi="http://sodipodi.sourceforge.net/DTD/sodipodi-0.dtd"
   xmlns="http://www.w3.org/2000/svg"
   xmlns:svg="http://www.w3.org/2000/svg"><defs
   id="defs2" /><sodipodi:namedview
   id="namedview2"
   pagecolor="#ffffff"
   bordercolor="#000000"
   borderopacity="0.25"
   inkscape:showpageshadow="2"
   inkscape:pageopacity="0.0"
   inkscape:pagecheckerboard="0"
   inkscape:deskcolor="#d1d1d1"
   showgrid="false"
   inkscape:zoom="1.00875"
   inkscape:cx="400"
   inkscape:cy="400"
   inkscape:window-width="1920"
   inkscape:window-height="1009"
   inkscape:window-x="-8"
   inkscape:window-y="-8"
   inkscape:window-maximized="1"
   inkscape:current-layer="Capa_1" />
<path
   style="fill:#0000ff;stroke-width:0.991326"
   d="m 228.26928,512.76332 c -0.25077,-162.00288 -0.35582,-170.95915 -2.04938,-174.72119 -5.96772,-13.25656 -21.59495,-18.78303 -33.99701,-12.02281 -2.77802,1.51427 -8.97451,6.69505 -13.76997,11.51283 l -8.71903,8.75961 -46.4917,-45.26484 -46.491696,-45.26484 69.679276,-69.59879 69.67928,-69.5988 29.73977,-0.0381 29.73978,-0.0381 1.83099,4.45236 c 20.30439,49.37342 108.42415,73.77046 178.43397,49.40164 28.42479,-9.89402 51.01409,-27.83858 59.79234,-47.49805 l 2.81754,-6.31008 30.73111,-0.005 c 27.99356,-0.004 31.08433,0.16083 34.6964,1.85536 2.70356,1.26832 25.76828,23.73632 72.48552,70.6102 l 68.5202,68.74995 -33.63249,32.71376 c -18.49788,17.99256 -39.4265,38.23459 -46.50806,44.98226 l -12.87555,12.2685 -12.59456,-12.34947 c -14.72889,-14.44228 -17.84661,-16.11629 -28.85669,-15.49416 -8.45448,0.47772 -13.79435,3.72326 -18.41082,11.18999 l -2.99743,4.84808 -0.25874,173.80775 -0.25874,173.80777 H 398.51859 228.5336 Z"
   id="path2"
   transform="scale(0.0758425)" /><path
   style="fill:#0000ff;stroke-width:0.991326"
   d="M 88.956572,335.3011 43.111121,289.44769 54.87265,277.71681 66.634179,265.98592 112.62316,310.71909 c 25.29394,24.60323 46.10218,45.05882 46.24053,45.45686 0.13836,0.39803 -5.21892,6.18104 -11.90506,12.85112 l -12.15661,12.12743 z"
   id="path3"
   transform="scale(0.0758425)" /><path
   id="path4"
   style="fill:#0000ff;stroke-width:0.0751846"
   d="m 55.653138,20.200917 c -2.039309,1.970659 -4.072931,3.947209 -6.097033,5.933492 -0.350524,0.343411 -0.70103,0.686843 -1.051567,1.030242 0.647407,0.653319 1.294897,1.306558 1.942427,1.959758 2.390217,-2.389985 4.780527,-4.779874 7.170819,-7.169783 -0.619062,-0.619205 -1.238195,-1.238338 -1.8574,-1.8574 -0.03575,0.03456 -0.0715,0.06913 -0.107246,0.103691 z" /><path
   id="path5"
   style="fill:#0000ff;stroke-width:0.0751846"
   d="m 20.836246,8.6852996 c -1.503322,0.030106 -3.00664,0.060308 -4.509963,0.090359 -3.549687,3.5438084 -7.0990364,7.0879544 -10.6487609,10.6317254 2.3926493,2.328497 4.7852749,4.657019 7.1779299,6.985509 0.412093,-0.386981 0.81283,-0.786357 1.237151,-1.16009 0.275258,-0.235192 0.57466,-0.476327 0.941694,-0.539406 0.247257,-0.04258 0.500141,-0.03442 0.749693,-0.0224 0.179446,0.0055 0.34726,0.07845 0.496297,0.174148 0.221531,0.135043 0.413544,0.317228 0.572153,0.521802 0.10932,0.15069 0.200961,0.319249 0.22501,0.506456 0.07409,0.50302 0.05867,1.012882 0.06806,1.519742 0.02455,3.045337 0.0273,6.090799 0.03143,9.136219 0.0025,4.247961 6.1e-4,8.495969 0.02765,12.743863 0.0061,0.599185 0.0039,1.198671 0.02446,1.79756 0.0188,0.30691 0.03754,0.613822 0.05638,0.920729 8.625011,0 17.250021,0 25.875032,0 0.02052,-0.282768 0.0548,-0.564726 0.06592,-0.848044 0.01895,-1.088426 0.0201,-2.177078 0.02624,-3.265632 0.02466,-6.037102 0.01562,-12.07427 0.01746,-18.111406 0,-1.427438 0,-2.854877 0,-4.282316 0.187075,-0.266636 0.345192,-0.560476 0.588987,-0.781581 0.207662,-0.192282 0.495457,-0.255759 0.769382,-0.277345 0.09794,-0.009 0.19939,-0.01392 0.289902,-0.01708 0.212474,-0.0024 0.432617,-0.02925 0.63841,0.03747 0.266504,0.102236 0.474052,0.305642 0.691369,0.483221 0.553681,0.475424 1.068749,0.993106 1.599333,1.493634 0.03296,0.01483 0.0658,0.09889 0.09885,0.06294 1.274662,-1.202266 2.531274,-2.423556 3.791805,-3.640428 1.135467,-1.097975 2.269965,-2.196952 3.405013,-3.295361 C 52.968151,17.381494 50.796566,15.209993 48.618998,13.044501 47.395371,11.831959 46.172015,10.618859 44.930593,9.4245743 44.756672,9.2629934 44.590508,9.0919299 44.405043,8.9434902 44.248508,8.837184 44.059027,8.8002707 43.873378,8.7882004 c -0.501582,-0.033858 -1.004831,-0.022524 -1.507224,-0.026385 -1.046727,8.1e-4 -2.093451,0.00347 -3.140176,0.0051 -0.14983,0.303734 -0.284228,0.6154164 -0.448217,0.9119332 -0.400368,0.6919414 -0.979388,1.2640004 -1.611986,1.7451034 -0.05932,0.04581 -0.108312,0.08058 -0.171086,0.126288 -0.630749,0.45123 -1.318724,0.822522 -2.040484,1.105897 -0.697348,0.258519 -1.418916,0.447116 -2.145695,0.602119 -0.294329,0.06144 -0.590464,0.114786 -0.888594,0.15416 -0.124893,0.0162 -0.266719,0.03016 -0.398693,0.03979 -0.611866,0.04412 -1.223858,0.04281 -1.839191,0.0249 -0.61327,-0.0209 -1.232232,-0.05775 -1.845369,-0.142586 -0.480724,-0.06976 -0.953747,-0.18495 -1.42217,-0.312046 -1.186825,-0.330747 -2.343348,-0.821861 -3.33597,-1.560582 -0.441644,-0.329537 -0.847544,-0.708893 -1.193963,-1.137985 -0.03291,-0.04088 -0.08036,-0.100883 -0.117225,-0.150196 -0.174734,-0.2309193 -0.331648,-0.4752437 -0.468776,-0.7302876 -0.01308,-0.024813 -0.0419,-0.078487 -0.05434,-0.1040703 -0.0324,-0.06388 -0.05586,-0.1118487 -0.08668,-0.1773766 -0.07147,-0.1546338 -0.148493,-0.3199591 -0.222343,-0.4786072 -0.03298,6.416e-4 -0.06597,0.00128 -0.09895,0.00193 z" /><path
   id="path6"
   style="fill:#0000ff;stroke-width:0.0751846"
   d="m 4.9595366,20.128037 c -0.609847,0.608027 -1.2196386,1.21611 -1.8294041,1.824219 2.3648658,2.365218 4.729667,4.7305 7.0945325,7.095718 0.673819,-0.677572 1.347478,-1.3553 2.021232,-2.032935 C 10.609761,25.449049 8.9929334,23.86306 7.3732121,22.28013 6.6039973,21.527521 5.8348654,20.774827 5.0655976,20.022272 c -0.035354,0.03525 -0.070707,0.07051 -0.106061,0.105765 z" /><rect
   style="fill:#ffffff;stroke-width:0.080923"
   id="rect6-2"
   width="2.0299852"
   height="44.5093"
   x="38.060436"
   y="7.9972014"
   ry="0.085594818" /><rect
   style="fill:#ffffff;stroke-width:0.0758425"
   id="rect6"
   width="2.0299852"
   height="39.096008"
   x="28.645346"
   y="13.382865"
   ry="0.075184636" /><rect
   style="fill:#ffffff;stroke-width:0.0807862"
   id="rect6-3"
   width="2.0299852"
   height="44.358932"
   x="20.486309"
   y="8.2329998"
   ry="0.085305646" /><g
   id="g2">
	<g
   id="g1">
		<path
   style="fill:#010002;"
   d="M46.682,6.95c-0.675-0.675-1.813-1.147-2.768-1.147h-5.818c-0.134,0-1.318,0.04-1.516,1.438    c-0.02,0.14-0.05,0.351-0.121,0.56c-0.473,1.384-2.979,2.815-6.353,2.815s-5.88-1.432-6.353-2.815    c-0.408-1.194-1.446-1.997-2.584-1.997h-5.397c-0.627,0-0.627,0-6.953,6.322l-8.086,8.082C0.261,20.68,0.001,21.308,0,21.975    c0,0.669,0.259,1.297,0.732,1.77l7.714,7.716c0.944,0.945,2.59,0.945,3.536,0l2.289-2.29v23.2c0,1.379,1.122,2.5,2.5,2.5h26.854    c1.378,0,2.5-1.121,2.5-2.5V28.892l2.568,2.568c0.944,0.945,2.591,0.945,3.535,0l7.714-7.716c0.472-0.472,0.732-1.1,0.732-1.768    s-0.26-1.296-0.732-1.767L46.682,6.95z M10.214,28.985l-7.007-7.008c0.571-0.571,1.199-1.199,1.857-1.857l7.103,6.912    L10.214,28.985z M44.924,24.252c-0.894,0-1.799,0.692-1.799,2.018v25.601H17.271V26.548c0-1.325-0.905-2.017-1.799-2.017    c-0.367,0-0.919,0.115-1.469,0.664l-1.128,1.129l-7.103-6.911C9.87,15.316,14.91,10.28,16.39,8.805h4.536    c0.993,2.835,4.76,4.813,9.18,4.813s8.188-1.978,9.18-4.813h4.628c0.162,0.002,0.531,0.155,0.647,0.268l10.473,10.472    l-7.103,6.911l-1.538-1.54C45.844,24.367,45.291,24.252,44.924,24.252z M50.46,28.985l-1.823-1.823l7.104-6.912l1.727,1.727    L50.46,28.985z"
   id="path1" />
	</g>
</g>
</svg>
