<?xml version="1.0" encoding="UTF-8" standalone="no"?>
<!-- Uploaded to: SVG Repo, www.svgrepo.com, Generator: SVG Repo Mixer Tools -->

<svg
   height="800px"
   width="800px"
   version="1.1"
   id="Capa_1"
   viewBox="0 0 60.674 60.674"
   xml:space="preserve"
   sodipodi:docname="LEI.svg"
   inkscape:version="1.4 (86a8ad7, 2024-10-11)"
   xmlns:inkscape="http://www.inkscape.org/namespaces/inkscape"
   xmlns:sodipodi="http://sodipodi.sourceforge.net/DTD/sodipodi-0.dtd"
   xmlns="http://www.w3.org/2000/svg"
   xmlns:svg="http://www.w3.org/2000/svg"><defs
   id="defs2" /><sodipodi:namedview
   id="namedview2"
   pagecolor="#ffffff"
   bordercolor="#000000"
   borderopacity="0.25"
   inkscape:showpageshadow="2"
   inkscape:pageopacity="0.0"
   inkscape:pagecheckerboard="0"
   inkscape:deskcolor="#d1d1d1"
   showgrid="false"
   inkscape:zoom="1.00875"
   inkscape:cx="400"
   inkscape:cy="400"
   inkscape:window-width="1920"
   inkscape:window-height="1009"
   inkscape:window-x="-8"
   inkscape:window-y="-8"
   inkscape:window-maximized="1"
   inkscape:current-layer="Capa_1" />
<g
   id="g2">
	<g
   id="g1">
		<path
   style="fill:#010002;"
   d="M46.682,6.95c-0.675-0.675-1.813-1.147-2.768-1.147h-5.818c-0.134,0-1.318,0.04-1.516,1.438    c-0.02,0.14-0.05,0.351-0.121,0.56c-0.473,1.384-2.979,2.815-6.353,2.815s-5.88-1.432-6.353-2.815    c-0.408-1.194-1.446-1.997-2.584-1.997h-5.397c-0.627,0-0.627,0-6.953,6.322l-8.086,8.082C0.261,20.68,0.001,21.308,0,21.975    c0,0.669,0.259,1.297,0.732,1.77l7.714,7.716c0.944,0.945,2.59,0.945,3.536,0l2.289-2.29v23.2c0,1.379,1.122,2.5,2.5,2.5h26.854    c1.378,0,2.5-1.121,2.5-2.5V28.892l2.568,2.568c0.944,0.945,2.591,0.945,3.535,0l7.714-7.716c0.472-0.472,0.732-1.1,0.732-1.768    s-0.26-1.296-0.732-1.767L46.682,6.95z M10.214,28.985l-7.007-7.008c0.571-0.571,1.199-1.199,1.857-1.857l7.103,6.912    L10.214,28.985z M44.924,24.252c-0.894,0-1.799,0.692-1.799,2.018v25.601H17.271V26.548c0-1.325-0.905-2.017-1.799-2.017    c-0.367,0-0.919,0.115-1.469,0.664l-1.128,1.129l-7.103-6.911C9.87,15.316,14.91,10.28,16.39,8.805h4.536    c0.993,2.835,4.76,4.813,9.18,4.813s8.188-1.978,9.18-4.813h4.628c0.162,0.002,0.531,0.155,0.647,0.268l10.473,10.472    l-7.103,6.911l-1.538-1.54C45.844,24.367,45.291,24.252,44.924,24.252z M50.46,28.985l-1.823-1.823l7.104-6.912l1.727,1.727    L50.46,28.985z"
   id="path1" />
	</g>
</g>
<path
   id="path2"
   style="fill:#ffffff;stroke-width:0.0751846"
   d="m 20.901127,8.6830774 c -1.524553,0.00208 -3.049106,0.00389 -4.573659,0.00593 C 12.753296,12.25899 9.1790775,15.828928 5.6049385,19.398946 c 2.4231206,2.359454 4.8465125,4.718629 7.2697705,7.077942 0.319266,-0.316847 0.630651,-0.641764 0.955518,-0.952885 0.24947,-0.230139 0.503231,-0.459247 0.78797,-0.645437 0.22762,-0.132886 0.488309,-0.208146 0.751612,-0.21864 0.02938,-0.0016 0.088,-0.0021 0.128724,-2.96e-4 0.568661,0.01802 1.111693,0.34322 1.406995,0.827752 0.07553,0.123919 0.14896,0.255699 0.156419,0.404147 0.0066,0.05536 0.01153,0.10867 0.015,0.156422 0.03101,0.463598 0.0342,0.924696 0.04254,1.390837 0.02363,1.847109 0.02487,3.694419 0.03017,5.541649 0.01378,6.337021 0.02077,12.674055 0.03149,19.011082 8.695669,0 17.391337,0 26.087005,0 0.01322,-8.824196 0.02623,-17.648392 0.03955,-26.472587 0.184402,-0.292703 0.348459,-0.613097 0.630161,-0.826624 0.265893,-0.209675 0.611446,-0.279143 0.942952,-0.285494 0.275337,-0.01559 0.564333,0.0042 0.809583,0.142314 0.324226,0.179427 0.590905,0.442247 0.860236,0.692677 0.460757,0.442984 0.913871,0.893853 1.371314,1.340254 0.928702,-0.882465 1.853576,-1.768899 2.772961,-2.661083 1.502516,-1.454153 2.999684,-2.913814 4.498883,-4.371383 -2.232173,-2.2379 -4.460831,-4.479471 -6.695636,-6.714563 C 47.396464,11.737871 46.297713,10.63747 45.173417,9.5634404 44.926976,9.3336468 44.686964,9.0954035 44.421659,8.8871225 44.223548,8.7518582 43.975039,8.7299609 43.742213,8.7131368 c -0.56753,-0.03141 -1.136346,-0.023072 -1.704523,-0.026547 -0.938174,-8.502e-4 -1.876351,4.02e-5 -2.814526,-1.054e-4 -0.172854,0.3765254 -0.320919,0.7673304 -0.54992,1.1149902 -0.478577,0.7456534 -1.147135,1.3524904 -1.876532,1.8471434 -0.775301,0.524124 -1.63168,0.922683 -2.521087,1.210537 -0.06503,0.02034 -0.133909,0.04304 -0.202147,0.06331 -0.242097,0.07384 -0.484553,0.139373 -0.726872,0.197543 -0.287813,0.06903 -0.571536,0.126871 -0.865055,0.176622 -0.230611,0.03932 -0.449173,0.07049 -0.683365,0.09816 C 31.19656,13.46533 30.6018,13.496421 29.99746,13.4904 29.727316,13.4874 29.459442,13.47736 29.196411,13.4598 28.88473,13.43929 28.569422,13.40786 28.256219,13.3665 27.969453,13.32829 27.671086,13.27905 27.382376,13.221895 27.02884,13.151495 26.662643,13.063552 26.317495,12.964179 25.751562,12.801435 25.196408,12.599737 24.6617,12.352699 23.594778,11.858218 22.575663,11.17278 21.840418,10.236515 21.539583,9.85426 21.296725,9.4270938 21.12219,8.9729717 21.08242,8.8762937 21.04262,8.7796264 21.002891,8.6829295 c -0.03392,4.93e-5 -0.06784,9.86e-5 -0.101764,1.479e-4 z" /><rect
   style="fill:#000000;stroke-width:0.0758425"
   id="rect6-3"
   width="0.75184631"
   height="18.570604"
   x="43.440182"
   y="7.1732721"
   ry="0.075184636" /><path
   style="fill:#ffffff;stroke-width:0.991326"
   d="M 88.956572,335.3011 43.111121,289.44769 54.87265,277.71681 66.634179,265.98592 112.62316,310.71909 c 25.29394,24.60323 46.10218,45.05882 46.24053,45.45686 0.13836,0.39803 -5.21892,6.18104 -11.90506,12.85112 l -12.15661,12.12743 z"
   id="path3"
   transform="scale(0.0758425)" /><path
   style="fill:#0000ff;stroke-width:0.991326"
   d="m 653.76936,369.68487 -11.39018,-11.49218 24.28749,-23.79396 c 13.35811,-13.08668 34.2404,-33.42725 46.40507,-45.20125 l 22.1176,-21.40729 10.84323,10.84324 10.84325,10.84324 -45.85815,45.85018 -45.85814,45.85019 z"
   id="path4"
   transform="scale(0.0758425)" /><path
   id="path5"
   style="fill:#0000ff;stroke-width:0.0751846"
   d="m 4.9530189,20.059304 c -0.6327577,0.630889 -1.2653691,1.261924 -1.8979882,1.892952 2.3898148,2.390287 4.7795959,4.780608 7.1694863,7.17082 0.698807,-0.701021 1.397722,-1.401933 2.096482,-2.103001 -1.583571,-1.523402 -3.1528504,-3.061557 -4.7274507,-4.594208 -0.8448767,-0.824055 -1.6897152,-1.64815 -2.5346165,-2.472179 -0.035304,0.03521 -0.070609,0.07041 -0.1059129,0.105616 z" /><path
   id="path6"
   style="fill:#0000ff;stroke-width:0.0751846"
   d="m 55.653286,20.27587 c -1.320654,1.270812 -2.637605,2.545239 -3.948381,3.826323 -1.043136,1.019259 -2.08345,2.041402 -3.125117,3.062161 0.622033,0.628575 1.244704,1.256519 1.86688,1.884953 2.365352,-2.36488 4.730739,-4.729725 7.096014,-7.094681 -0.59405,-0.59405 -1.1881,-1.1881 -1.78215,-1.78215 -0.03575,0.03446 -0.0715,0.06893 -0.107246,0.103394 z" /><rect
   style="fill:#000000;stroke-width:0.0758425"
   id="rect6"
   width="0.75184631"
   height="18.570604"
   x="16.239882"
   y="8.5710478"
   ry="0.075184636" /><path
   id="path7"
   style="fill:#0000ff;stroke-width:0.0751846"
   d="m 19.801114,8.5331701 c -0.858219,0.00728 -1.715726,0.043657 -2.572753,0.087768 -0.11869,0.00571 -0.23738,0.011413 -0.356071,0.017108 0.05107,11.0325339 0.100057,22.0650769 0.151928,33.0976069 0.01625,3.269933 0.03127,6.539883 0.05642,9.809762 0.0015,0.191247 0.003,0.382511 0.01044,0.57364 0.543728,0.01434 1.087776,0.0089 1.631649,0.01258 4.268671,0.0096 8.537357,0.0099 12.806037,0.0098 3.611772,-0.0013 7.223554,-0.0012 10.835314,-0.01187 0.331577,-0.0028 0.663276,7.17e-4 0.994724,-0.01056 0.01649,-0.551828 0.01318,-1.104063 0.01927,-1.656081 0.03444,-5.359997 0.05538,-10.72007 0.07928,-16.080121 0.03702,-8.59183 0.07575,-17.183653 0.115502,-25.77547 -1.473943,4.08e-4 -2.947884,0.00104 -4.421826,0.00133 -0.146982,0.2976484 -0.280969,0.601927 -0.438037,0.8944523 -0.131553,0.2362175 -0.286938,0.458697 -0.457112,0.6686147 -0.05697,0.07107 -0.129546,0.153689 -0.195023,0.227025 -0.667228,0.733105 -1.494341,1.307207 -2.375802,1.753311 -0.146111,0.07466 -0.308863,0.149927 -0.449543,0.212875 -0.687747,0.300908 -1.406016,0.531477 -2.138403,0.69547 -0.119881,0.02645 -0.256458,0.05412 -0.383624,0.07713 -0.298729,0.05482 -0.599872,0.09591 -0.901995,0.126694 -0.101416,0.0097 -0.226833,0.02094 -0.329188,0.0285 -0.459252,0.03372 -0.912893,0.04419 -1.374124,0.03963 -0.770266,-0.0102 -1.547645,-0.04203 -2.314415,-0.156262 -0.438856,-0.06591 -0.886917,-0.164638 -1.318554,-0.288945 -0.394527,-0.112335 -0.784596,-0.240772 -1.167065,-0.389194 -0.04229,-0.01671 -0.107955,-0.04331 -0.15921,-0.06381 -1.006565,-0.412241 -1.965548,-0.976203 -2.738793,-1.74848 -0.195494,-0.196079 -0.37785,-0.405343 -0.543499,-0.627259 -0.0188,-0.02673 -0.04786,-0.064812 -0.06876,-0.094916 C 21.585197,9.6693612 21.414673,9.3477359 21.263368,9.0185051 21.185638,8.8563607 21.107749,8.6942913 21.03015,8.532084 c -0.409677,4.945e-4 -0.819362,-0.00111 -1.229034,0.00104 z" /></svg>
