<?xml version="1.0" encoding="UTF-8" standalone="no"?>
<!-- Uploaded to: SVG Repo, www.svgrepo.com, Generator: SVG Repo Mixer Tools -->

<svg
   height="800px"
   width="800px"
   version="1.1"
   id="Capa_1"
   viewBox="0 0 60.674 60.674"
   xml:space="preserve"
   sodipodi:docname="LIV.svg"
   inkscape:version="1.4 (86a8ad7, 2024-10-11)"
   xmlns:inkscape="http://www.inkscape.org/namespaces/inkscape"
   xmlns:sodipodi="http://sodipodi.sourceforge.net/DTD/sodipodi-0.dtd"
   xmlns="http://www.w3.org/2000/svg"
   xmlns:svg="http://www.w3.org/2000/svg"><defs
   id="defs2" /><sodipodi:namedview
   id="namedview2"
   pagecolor="#ffffff"
   bordercolor="#000000"
   borderopacity="0.25"
   inkscape:showpageshadow="2"
   inkscape:pageopacity="0.0"
   inkscape:pagecheckerboard="0"
   inkscape:deskcolor="#d1d1d1"
   showgrid="false"
   inkscape:zoom="1.00875"
   inkscape:cx="400"
   inkscape:cy="400"
   inkscape:window-width="1920"
   inkscape:window-height="1009"
   inkscape:window-x="-8"
   inkscape:window-y="-8"
   inkscape:window-maximized="1"
   inkscape:current-layer="Capa_1" />
<path
   style="fill:#0000ff;stroke-width:0.991326"
   d="m 228.26928,512.76332 c -0.25077,-162.00288 -0.35582,-170.95915 -2.04938,-174.72119 -5.96772,-13.25656 -21.59495,-18.78303 -33.99701,-12.02281 -2.77802,1.51427 -8.97451,6.69505 -13.76997,11.51283 l -8.71903,8.75961 -46.4917,-45.26484 -46.491696,-45.26484 69.679276,-69.59879 69.67928,-69.5988 29.73977,-0.0381 29.73978,-0.0381 1.83099,4.45236 c 20.30439,49.37342 108.42415,73.77046 178.43397,49.40164 28.42479,-9.89402 51.01409,-27.83858 59.79234,-47.49805 l 2.81754,-6.31008 30.73111,-0.005 c 27.99356,-0.004 31.08433,0.16083 34.6964,1.85536 2.70356,1.26832 25.76828,23.73632 72.48552,70.6102 l 68.5202,68.74995 -33.63249,32.71376 c -18.49788,17.99256 -39.4265,38.23459 -46.50806,44.98226 l -12.87555,12.2685 -12.59456,-12.34947 c -14.72889,-14.44228 -17.84661,-16.11629 -28.85669,-15.49416 -8.45448,0.47772 -13.79435,3.72326 -18.41082,11.18999 l -2.99743,4.84808 -0.25874,173.80775 -0.25874,173.80777 H 398.51859 228.5336 Z"
   id="path2"
   transform="scale(0.0758425)" /><path
   style="fill:#0000ff;stroke-width:0.991326"
   d="M 88.956572,335.3011 43.111121,289.44769 54.87265,277.71681 66.634179,265.98592 112.62316,310.71909 c 25.29394,24.60323 46.10218,45.05882 46.24053,45.45686 0.13836,0.39803 -5.21892,6.18104 -11.90506,12.85112 l -12.15661,12.12743 z"
   id="path3"
   transform="scale(0.0758425)" /><path
   id="path4"
   style="fill:#0000ff;stroke-width:0.0751846"
   d="m 55.653138,20.200917 c -2.039309,1.970659 -4.072931,3.947209 -6.097033,5.933492 -0.350524,0.343411 -0.70103,0.686843 -1.051567,1.030242 0.647407,0.653319 1.294897,1.306558 1.942427,1.959758 2.390217,-2.389985 4.780527,-4.779874 7.170819,-7.169783 -0.619062,-0.619205 -1.238195,-1.238338 -1.8574,-1.8574 -0.03575,0.03456 -0.0715,0.06913 -0.107246,0.103691 z" /><path
   id="path5"
   style="fill:#0000ff;stroke-width:0.0751846"
   d="m 20.836246,8.6852996 c -1.503322,0.030106 -3.00664,0.060308 -4.509963,0.090359 -3.549687,3.5438084 -7.0990364,7.0879544 -10.6487609,10.6317254 2.3926493,2.328497 4.7852749,4.657019 7.1779299,6.985509 0.412093,-0.386981 0.81283,-0.786357 1.237151,-1.16009 0.275258,-0.235192 0.57466,-0.476327 0.941694,-0.539406 0.247257,-0.04258 0.500141,-0.03442 0.749693,-0.0224 0.179446,0.0055 0.34726,0.07845 0.496297,0.174148 0.221531,0.135043 0.413544,0.317228 0.572153,0.521802 0.10932,0.15069 0.200961,0.319249 0.22501,0.506456 0.07409,0.50302 0.05867,1.012882 0.06806,1.519742 0.02455,3.045337 0.0273,6.090799 0.03143,9.136219 0.0025,4.247961 6.1e-4,8.495969 0.02765,12.743863 0.0061,0.599185 0.0039,1.198671 0.02446,1.79756 0.0188,0.30691 0.03754,0.613822 0.05638,0.920729 8.625011,0 17.250021,0 25.875032,0 0.02052,-0.282768 0.0548,-0.564726 0.06592,-0.848044 0.01895,-1.088426 0.0201,-2.177078 0.02624,-3.265632 0.02466,-6.037102 0.01562,-12.07427 0.01746,-18.111406 0,-1.427438 0,-2.854877 0,-4.282316 0.187075,-0.266636 0.345192,-0.560476 0.588987,-0.781581 0.207662,-0.192282 0.495457,-0.255759 0.769382,-0.277345 0.09794,-0.009 0.19939,-0.01392 0.289902,-0.01708 0.212474,-0.0024 0.432617,-0.02925 0.63841,0.03747 0.266504,0.102236 0.474052,0.305642 0.691369,0.483221 0.553681,0.475424 1.068749,0.993106 1.599333,1.493634 0.03296,0.01483 0.0658,0.09889 0.09885,0.06294 1.274662,-1.202266 2.531274,-2.423556 3.791805,-3.640428 1.135467,-1.097975 2.269965,-2.196952 3.405013,-3.295361 C 52.968151,17.381494 50.796566,15.209993 48.618998,13.044501 47.395371,11.831959 46.172015,10.618859 44.930593,9.4245743 44.756672,9.2629934 44.590508,9.0919299 44.405043,8.9434902 44.248508,8.837184 44.059027,8.8002707 43.873378,8.7882004 c -0.501582,-0.033858 -1.004831,-0.022524 -1.507224,-0.026385 -1.046727,8.1e-4 -2.093451,0.00347 -3.140176,0.0051 -0.14983,0.303734 -0.284228,0.6154164 -0.448217,0.9119332 -0.400368,0.6919414 -0.979388,1.2640004 -1.611986,1.7451034 -0.05932,0.04581 -0.108312,0.08058 -0.171086,0.126288 -0.630749,0.45123 -1.318724,0.822522 -2.040484,1.105897 -0.697348,0.258519 -1.418916,0.447116 -2.145695,0.602119 -0.294329,0.06144 -0.590464,0.114786 -0.888594,0.15416 -0.124893,0.0162 -0.266719,0.03016 -0.398693,0.03979 -0.611866,0.04412 -1.223858,0.04281 -1.839191,0.0249 -0.61327,-0.0209 -1.232232,-0.05775 -1.845369,-0.142586 -0.480724,-0.06976 -0.953747,-0.18495 -1.42217,-0.312046 -1.186825,-0.330747 -2.343348,-0.821861 -3.33597,-1.560582 -0.441644,-0.329537 -0.847544,-0.708893 -1.193963,-1.137985 -0.03291,-0.04088 -0.08036,-0.100883 -0.117225,-0.150196 -0.174734,-0.2309193 -0.331648,-0.4752437 -0.468776,-0.7302876 -0.01308,-0.024813 -0.0419,-0.078487 -0.05434,-0.1040703 -0.0324,-0.06388 -0.05586,-0.1118487 -0.08668,-0.1773766 -0.07147,-0.1546338 -0.148493,-0.3199591 -0.222343,-0.4786072 -0.03298,6.416e-4 -0.06597,0.00128 -0.09895,0.00193 z" /><path
   id="path6"
   style="fill:#0000ff;stroke-width:0.0751846"
   d="m 4.9595366,20.128037 c -0.609847,0.608027 -1.2196386,1.21611 -1.8294041,1.824219 2.3648658,2.365218 4.729667,4.7305 7.0945325,7.095718 0.673819,-0.677572 1.347478,-1.3553 2.021232,-2.032935 C 10.609761,25.449049 8.9929334,23.86306 7.3732121,22.28013 6.6039973,21.527521 5.8348654,20.774827 5.0655976,20.022272 c -0.035354,0.03525 -0.070707,0.07051 -0.106061,0.105765 z" /><rect
   style="fill:#ffffff;stroke-width:0.080923"
   id="rect6-2"
   width="2.0299852"
   height="44.5093"
   x="38.060436"
   y="7.9972014"
   ry="0.085594818" /><rect
   style="fill:#ffffff;stroke-width:0.0758425"
   id="rect6"
   width="2.0299852"
   height="39.096008"
   x="28.645346"
   y="13.382865"
   ry="0.075184636" /><rect
   style="fill:#ffffff;stroke-width:0.0807862"
   id="rect6-3"
   width="2.0299852"
   height="44.358932"
   x="20.486309"
   y="8.2329998"
   ry="0.085305646" /><g
   id="g2">
	<g
   id="g1">
		<path
   style="fill:#010002;"
   d="M46.682,6.95c-0.675-0.675-1.813-1.147-2.768-1.147h-5.818c-0.134,0-1.318,0.04-1.516,1.438    c-0.02,0.14-0.05,0.351-0.121,0.56c-0.473,1.384-2.979,2.815-6.353,2.815s-5.88-1.432-6.353-2.815    c-0.408-1.194-1.446-1.997-2.584-1.997h-5.397c-0.627,0-0.627,0-6.953,6.322l-8.086,8.082C0.261,20.68,0.001,21.308,0,21.975    c0,0.669,0.259,1.297,0.732,1.77l7.714,7.716c0.944,0.945,2.59,0.945,3.536,0l2.289-2.29v23.2c0,1.379,1.122,2.5,2.5,2.5h26.854    c1.378,0,2.5-1.121,2.5-2.5V28.892l2.568,2.568c0.944,0.945,2.591,0.945,3.535,0l7.714-7.716c0.472-0.472,0.732-1.1,0.732-1.768    s-0.26-1.296-0.732-1.767L46.682,6.95z M10.214,28.985l-7.007-7.008c0.571-0.571,1.199-1.199,1.857-1.857l7.103,6.912    L10.214,28.985z M44.924,24.252c-0.894,0-1.799,0.692-1.799,2.018v25.601H17.271V26.548c0-1.325-0.905-2.017-1.799-2.017    c-0.367,0-0.919,0.115-1.469,0.664l-1.128,1.129l-7.103-6.911C9.87,15.316,14.91,10.28,16.39,8.805h4.536    c0.993,2.835,4.76,4.813,9.18,4.813s8.188-1.978,9.18-4.813h4.628c0.162,0.002,0.531,0.155,0.647,0.268l10.473,10.472    l-7.103,6.911l-1.538-1.54C45.844,24.367,45.291,24.252,44.924,24.252z M50.46,28.985l-1.823-1.823l7.104-6.912l1.727,1.727    L50.46,28.985z"
   id="path1" />
	</g>
</g>
<path
   id="path7"
   style="fill:#ff0000;stroke-width:0.0751846"
   d="M 16.282585,8.7269242 C 12.723763,12.286039 9.1649533,15.845167 5.6061236,19.404274 c 2.416763,2.355787 4.8338164,4.711277 7.2506614,7.066981 0.380279,-0.367497 0.752072,-0.743941 1.140103,-1.103305 0.287671,-0.256468 0.592277,-0.519126 0.968082,-0.632926 0.270801,-0.07665 0.559599,-0.0802 0.836341,-0.03614 0.341142,0.0556 0.648575,0.248214 0.873006,0.507469 0.09799,0.120191 0.245555,0.207562 0.289546,0.364804 0.08177,0.270817 0.09088,0.556559 0.111785,0.836843 0.0434,0.790352 0.04865,1.579591 0.0585,2.372935 0.02091,2.537381 0.01815,5.074881 0.02323,7.612327 0.0073,5.199419 0.01577,10.398838 0.02377,15.598256 1.127713,0 2.255425,0 3.383138,0 0,-14.436343 0,-28.872687 0,-43.30903 -1.412419,0 -2.824837,0 -4.237255,0 -0.01481,0.014813 -0.02963,0.029626 -0.04444,0.044439 z" /><path
   id="path8"
   style="fill:#ff0000;stroke-width:0.0751846"
   d="m 4.9550927,20.057082 c -0.6333107,0.631768 -1.2666602,1.263498 -1.900062,1.895174 2.3897655,2.390238 4.7794973,4.78051 7.1693383,7.170672 0.698284,-0.698285 1.396568,-1.396569 2.094853,-2.094854 -1.723979,-1.692748 -3.4579656,-3.375226 -5.1883464,-5.061415 -0.6900024,-0.671735 -1.380035,-1.343438 -2.0700181,-2.015193 -0.035255,0.03521 -0.07051,0.07041 -0.1057648,0.105616 z" /><path
   id="path9"
   style="fill:#ff0000;stroke-width:0.0751846"
   d="m 22.366131,11.1724 c 0,13.606372 0,27.212744 0,40.819115 2.131095,0 4.26219,0 6.393286,0 0,-12.846564 0,-25.693128 0,-38.539693 -0.521175,-0.06571 -1.043083,-0.132838 -1.555786,-0.249669 -1.100101,-0.245352 -2.174217,-0.626611 -3.162325,-1.171835 -0.387979,-0.213145 -0.755551,-0.461494 -1.105035,-0.732879 -0.190046,-0.143002 -0.380092,-0.286003 -0.57014,-0.429002 0,0.101321 0,0.202642 0,0.303963 z" /><path
   id="path10"
   style="fill:#ff0000;stroke-width:0.0751846"
   d="m 37.903474,10.737046 c -0.313735,0.285603 -0.619727,0.582018 -0.967394,0.827111 -0.524325,0.378171 -1.099598,0.681311 -1.694796,0.931487 -0.03936,0.01625 -0.103059,0.04194 -0.151753,0.0618 -1.161759,0.463569 -2.393951,0.732017 -3.634446,0.873637 -0.08983,0.0094 -0.198448,0.02115 -0.295777,0.0308 -0.199346,0.01956 -0.398703,0.03901 -0.598039,0.05867 0,12.823654 0,25.647307 0,38.47096 2.532083,0 5.064166,0 7.596248,0 0,-13.828863 0,-27.657726 0,-41.486588 -0.08468,0.07737 -0.169362,0.154746 -0.254043,0.232119 z" /><path
   id="path11"
   style="fill:#ff0000;stroke-width:0.0751846"
   d="m 39.959369,8.83417 c 0,14.385782 0,28.771563 0,43.157345 1.103568,0 2.207135,0 3.310703,0 7.65e-4,-6.05231 -0.0018,-12.104622 0.0018,-18.156931 0.0032,-2.202717 7.76e-4,-4.405515 0.02528,-6.608126 0.0051,-0.34854 0.0101,-0.699225 0.02211,-1.043036 0.0047,-0.154678 0.0114,-0.309341 0.02352,-0.463631 0.0037,-0.03657 0.0088,-0.09991 0.01649,-0.146216 0.02538,-0.142254 0.09529,-0.272726 0.163378,-0.398759 0.188644,-0.336553 0.509512,-0.596564 0.881572,-0.702007 0.302066,-0.08707 0.624495,-0.09075 0.933291,-0.0405 0.350417,0.06336 0.637488,0.292504 0.900018,0.518839 0.0984,0.08526 0.205348,0.185288 0.304845,0.278549 0.463893,0.446064 0.91711,0.903081 1.376133,1.354138 0.664508,-0.624323 1.326215,-1.251484 1.980497,-1.886547 1.772048,-1.710379 3.534306,-3.430857 5.300087,-5.147697 -2.14739,-2.15093 -4.291529,-4.305108 -6.441614,-6.453345 C 47.53669,11.882598 46.316488,10.668118 45.07463,9.4760373 44.85765,9.2721931 44.646267,9.061511 44.416745,8.8716469 44.182636,8.7187719 43.892266,8.7126279 43.622103,8.6980836 42.960496,8.6761401 42.298312,8.6850205 41.636437,8.682485 c -0.559023,0 -1.118046,0 -1.677068,0 0,0.050562 0,0.1011231 0,0.151685 z" /><path
   id="path12"
   style="fill:#ff0000;stroke-width:0.0751846"
   d="m 55.644398,20.193362 c -2.382234,2.326519 -4.767988,4.649433 -7.152747,6.973362 0.652311,0.651972 1.304309,1.304258 1.956499,1.956352 2.389933,-2.389429 4.779853,-4.77887 7.169634,-7.16845 -0.622047,-0.622047 -1.244093,-1.244093 -1.86614,-1.86614 -0.03575,0.03496 -0.0715,0.06992 -0.107246,0.104876 z" /></svg>
