<?xml version="1.0" encoding="UTF-8" standalone="no"?>
<!-- Uploaded to: SVG Repo, www.svgrepo.com, Generator: SVG Repo Mixer Tools -->

<svg
   height="800px"
   width="800px"
   version="1.1"
   id="Capa_1"
   viewBox="0 0 60.674 60.674"
   xml:space="preserve"
   sodipodi:docname="MCI.svg"
   inkscape:version="1.4 (86a8ad7, 2024-10-11)"
   xmlns:inkscape="http://www.inkscape.org/namespaces/inkscape"
   xmlns:sodipodi="http://sodipodi.sourceforge.net/DTD/sodipodi-0.dtd"
   xmlns="http://www.w3.org/2000/svg"
   xmlns:svg="http://www.w3.org/2000/svg"><defs
   id="defs2" /><sodipodi:namedview
   id="namedview2"
   pagecolor="#ffffff"
   bordercolor="#000000"
   borderopacity="0.25"
   inkscape:showpageshadow="2"
   inkscape:pageopacity="0.0"
   inkscape:pagecheckerboard="0"
   inkscape:deskcolor="#d1d1d1"
   showgrid="false"
   inkscape:zoom="1.00875"
   inkscape:cx="400"
   inkscape:cy="400"
   inkscape:window-width="1920"
   inkscape:window-height="1009"
   inkscape:window-x="-8"
   inkscape:window-y="-8"
   inkscape:window-maximized="1"
   inkscape:current-layer="Capa_1" />
<path
   style="fill:#0000ff;stroke-width:0.991326"
   d="M 88.956572,335.3011 43.111121,289.44769 54.87265,277.71681 66.634179,265.98592 112.62316,310.71909 c 25.29394,24.60323 46.10218,45.05882 46.24053,45.45686 0.13836,0.39803 -5.21892,6.18104 -11.90506,12.85112 l -12.15661,12.12743 z"
   id="path3"
   transform="scale(0.0758425)" /><path
   id="path4"
   style="fill:#0000ff;stroke-width:0.0751846"
   d="m 55.653138,20.200917 c -2.039309,1.970659 -4.072931,3.947209 -6.097033,5.933492 -0.350524,0.343411 -0.70103,0.686843 -1.051567,1.030242 0.647407,0.653319 1.294897,1.306558 1.942427,1.959758 2.390217,-2.389985 4.780527,-4.779874 7.170819,-7.169783 -0.619062,-0.619205 -1.238195,-1.238338 -1.8574,-1.8574 -0.03575,0.03456 -0.0715,0.06913 -0.107246,0.103691 z" /><path
   id="path6"
   style="fill:#0000ff;stroke-width:0.0751846"
   d="m 4.9595366,20.128037 c -0.609847,0.608027 -1.2196386,1.21611 -1.8294041,1.824219 2.3648658,2.365218 4.729667,4.7305 7.0945325,7.095718 0.673819,-0.677572 1.347478,-1.3553 2.021232,-2.032935 C 10.609761,25.449049 8.9929334,23.86306 7.3732121,22.28013 6.6039973,21.527521 5.8348654,20.774827 5.0655976,20.022272 c -0.035354,0.03525 -0.070707,0.07051 -0.106061,0.105765 z" /><g
   id="g2">
	<g
   id="g1">
		<path
   style="fill:#010002;"
   d="M46.682,6.95c-0.675-0.675-1.813-1.147-2.768-1.147h-5.818c-0.134,0-1.318,0.04-1.516,1.438    c-0.02,0.14-0.05,0.351-0.121,0.56c-0.473,1.384-2.979,2.815-6.353,2.815s-5.88-1.432-6.353-2.815    c-0.408-1.194-1.446-1.997-2.584-1.997h-5.397c-0.627,0-0.627,0-6.953,6.322l-8.086,8.082C0.261,20.68,0.001,21.308,0,21.975    c0,0.669,0.259,1.297,0.732,1.77l7.714,7.716c0.944,0.945,2.59,0.945,3.536,0l2.289-2.29v23.2c0,1.379,1.122,2.5,2.5,2.5h26.854    c1.378,0,2.5-1.121,2.5-2.5V28.892l2.568,2.568c0.944,0.945,2.591,0.945,3.535,0l7.714-7.716c0.472-0.472,0.732-1.1,0.732-1.768    s-0.26-1.296-0.732-1.767L46.682,6.95z M10.214,28.985l-7.007-7.008c0.571-0.571,1.199-1.199,1.857-1.857l7.103,6.912    L10.214,28.985z M44.924,24.252c-0.894,0-1.799,0.692-1.799,2.018v25.601H17.271V26.548c0-1.325-0.905-2.017-1.799-2.017    c-0.367,0-0.919,0.115-1.469,0.664l-1.128,1.129l-7.103-6.911C9.87,15.316,14.91,10.28,16.39,8.805h4.536    c0.993,2.835,4.76,4.813,9.18,4.813s8.188-1.978,9.18-4.813h4.628c0.162,0.002,0.531,0.155,0.647,0.268l10.473,10.472    l-7.103,6.911l-1.538-1.54C45.844,24.367,45.291,24.252,44.924,24.252z M50.46,28.985l-1.823-1.823l7.104-6.912l1.727,1.727    L50.46,28.985z"
   id="path1" />
	</g>
</g>
<path
   id="path8"
   style="fill:#ff0000;stroke-width:0.0751846"
   d="m 4.9550927,20.057082 c -0.6333107,0.631768 -1.2666602,1.263498 -1.900062,1.895174 2.3897655,2.390238 4.7794973,4.78051 7.1693383,7.170672 0.698284,-0.698285 1.396568,-1.396569 2.094853,-2.094854 -1.723979,-1.692748 -3.4579656,-3.375226 -5.1883464,-5.061415 -0.6900024,-0.671735 -1.380035,-1.343438 -2.0700181,-2.015193 -0.035255,0.03521 -0.07051,0.07041 -0.1057648,0.105616 z" /><path
   id="path12"
   style="fill:#ff0000;stroke-width:0.0751846"
   d="m 55.644398,20.193362 c -2.382234,2.326519 -4.767988,4.649433 -7.152747,6.973362 0.652311,0.651972 1.304309,1.304258 1.956499,1.956352 2.389933,-2.389429 4.779853,-4.77887 7.169634,-7.16845 -0.622047,-0.622047 -1.244093,-1.244093 -1.86614,-1.86614 -0.03575,0.03496 -0.0715,0.06992 -0.107246,0.104876 z" /><path
   id="path13"
   style="fill:#00ffff;stroke-width:0.0751846"
   d="m 20.901127,8.6830774 c -1.524553,0.00208 -3.049106,0.00389 -4.573659,0.00593 C 12.753296,12.25899 9.1790775,15.828928 5.6049385,19.398946 c 2.4231206,2.359454 4.8465125,4.718629 7.2697705,7.077942 0.319266,-0.316847 0.630651,-0.641764 0.955518,-0.952885 0.24947,-0.230139 0.503231,-0.459247 0.78797,-0.645437 0.22762,-0.132886 0.488309,-0.208146 0.751612,-0.21864 0.02938,-0.0016 0.088,-0.0021 0.128724,-2.96e-4 0.568661,0.01802 1.111693,0.34322 1.406995,0.827752 0.07553,0.123919 0.14896,0.255699 0.156419,0.404147 0.0066,0.05536 0.01153,0.10867 0.015,0.156422 0.03101,0.463598 0.0342,0.924696 0.04254,1.390837 0.02363,1.847109 0.02487,3.694419 0.03017,5.541649 0.01378,6.337021 0.02077,12.674055 0.03149,19.011082 8.695669,0 17.391337,0 26.087005,0 0.01322,-8.824196 0.02623,-17.648392 0.03955,-26.472587 0.184402,-0.292703 0.348459,-0.613097 0.630161,-0.826624 0.265893,-0.209675 0.611446,-0.279143 0.942952,-0.285494 0.275337,-0.01559 0.564333,0.0042 0.809583,0.142314 0.324226,0.179427 0.590905,0.442247 0.860236,0.692677 0.460757,0.442984 0.913871,0.893853 1.371314,1.340254 0.928702,-0.882465 1.853576,-1.768899 2.772961,-2.661083 1.502516,-1.454153 2.999684,-2.913814 4.498883,-4.371383 -2.232173,-2.2379 -4.460831,-4.479471 -6.695636,-6.714563 C 47.396464,11.737871 46.297713,10.63747 45.173417,9.5634404 44.926976,9.3336468 44.686964,9.0954035 44.421659,8.8871225 44.223548,8.7518582 43.975039,8.7299609 43.742213,8.7131368 c -0.56753,-0.03141 -1.136346,-0.023072 -1.704523,-0.026547 -0.938174,-8.502e-4 -1.876351,4.02e-5 -2.814526,-1.054e-4 -0.172854,0.3765254 -0.320919,0.7673304 -0.54992,1.1149902 -0.478577,0.7456534 -1.147135,1.3524904 -1.876532,1.8471434 -0.775301,0.524124 -1.63168,0.922683 -2.521087,1.210537 -0.06503,0.02034 -0.133909,0.04304 -0.202147,0.06331 -0.242097,0.07384 -0.484553,0.139373 -0.726872,0.197543 -0.287813,0.06903 -0.571536,0.126871 -0.865055,0.176622 -0.230611,0.03932 -0.449173,0.07049 -0.683365,0.09816 C 31.19656,13.46533 30.6018,13.496421 29.99746,13.4904 29.727316,13.4874 29.459442,13.47736 29.196411,13.4598 28.88473,13.43929 28.569422,13.40786 28.256219,13.3665 27.969453,13.32829 27.671086,13.27905 27.382376,13.221895 27.02884,13.151495 26.662643,13.063552 26.317495,12.964179 25.751562,12.801435 25.196408,12.599737 24.6617,12.352699 23.594778,11.858218 22.575663,11.17278 21.840418,10.236515 21.539583,9.85426 21.296725,9.4270938 21.12219,8.9729717 21.08242,8.8762937 21.04262,8.7796264 21.002891,8.6829295 c -0.03392,4.93e-5 -0.06784,9.86e-5 -0.101764,1.479e-4 z" /><path
   style="fill:#00ffff;stroke-width:0.991326"
   d="M 87.970743,336.29792 41.129584,289.44897 53.966246,276.6408 66.80291,263.83264 97.837638,294.1146 c 17.069102,16.65508 38.395322,37.447 47.391602,46.20427 l 16.35688,15.9223 -13.38711,13.45285 -13.38711,13.45284 z"
   id="path14"
   transform="scale(0.0758425)" /><path
   style="fill:#00ffff;stroke-width:0.991326"
   d="m 652.77872,370.67496 -12.38219,-12.4835 27.26146,-26.73741 c 14.99381,-14.70558 36.32235,-35.492 47.39678,-46.19204 l 20.13531,-19.45463 11.83438,11.83438 11.83438,11.83437 -46.84897,46.84117 -46.84896,46.84117 z"
   id="path15"
   transform="scale(0.0758425)" /></svg>
