<?xml version="1.0" encoding="UTF-8" standalone="no"?>
<!-- Uploaded to: SVG Repo, www.svgrepo.com, Generator: SVG Repo Mixer Tools -->

<svg
   height="800px"
   width="800px"
   version="1.1"
   id="Capa_1"
   viewBox="0 0 60.674 60.674"
   xml:space="preserve"
   sodipodi:docname="NEW.svg"
   inkscape:version="1.4 (86a8ad7, 2024-10-11)"
   xmlns:inkscape="http://www.inkscape.org/namespaces/inkscape"
   xmlns:sodipodi="http://sodipodi.sourceforge.net/DTD/sodipodi-0.dtd"
   xmlns="http://www.w3.org/2000/svg"
   xmlns:svg="http://www.w3.org/2000/svg"><defs
   id="defs2" /><sodipodi:namedview
   id="namedview2"
   pagecolor="#ffffff"
   bordercolor="#000000"
   borderopacity="0.25"
   inkscape:showpageshadow="2"
   inkscape:pageopacity="0.0"
   inkscape:pagecheckerboard="0"
   inkscape:deskcolor="#d1d1d1"
   showgrid="false"
   inkscape:zoom="1.00875"
   inkscape:cx="260.22305"
   inkscape:cy="471.37546"
   inkscape:window-width="1920"
   inkscape:window-height="1009"
   inkscape:window-x="-8"
   inkscape:window-y="-8"
   inkscape:window-maximized="1"
   inkscape:current-layer="Capa_1" />
<g
   id="g2">
	<g
   id="g1">
		<path
   style="fill:#010002;"
   d="M46.682,6.95c-0.675-0.675-1.813-1.147-2.768-1.147h-5.818c-0.134,0-1.318,0.04-1.516,1.438    c-0.02,0.14-0.05,0.351-0.121,0.56c-0.473,1.384-2.979,2.815-6.353,2.815s-5.88-1.432-6.353-2.815    c-0.408-1.194-1.446-1.997-2.584-1.997h-5.397c-0.627,0-0.627,0-6.953,6.322l-8.086,8.082C0.261,20.68,0.001,21.308,0,21.975    c0,0.669,0.259,1.297,0.732,1.77l7.714,7.716c0.944,0.945,2.59,0.945,3.536,0l2.289-2.29v23.2c0,1.379,1.122,2.5,2.5,2.5h26.854    c1.378,0,2.5-1.121,2.5-2.5V28.892l2.568,2.568c0.944,0.945,2.591,0.945,3.535,0l7.714-7.716c0.472-0.472,0.732-1.1,0.732-1.768    s-0.26-1.296-0.732-1.767L46.682,6.95z M10.214,28.985l-7.007-7.008c0.571-0.571,1.199-1.199,1.857-1.857l7.103,6.912    L10.214,28.985z M44.924,24.252c-0.894,0-1.799,0.692-1.799,2.018v25.601H17.271V26.548c0-1.325-0.905-2.017-1.799-2.017    c-0.367,0-0.919,0.115-1.469,0.664l-1.128,1.129l-7.103-6.911C9.87,15.316,14.91,10.28,16.39,8.805h4.536    c0.993,2.835,4.76,4.813,9.18,4.813s8.188-1.978,9.18-4.813h4.628c0.162,0.002,0.531,0.155,0.647,0.268l10.473,10.472    l-7.103,6.911l-1.538-1.54C45.844,24.367,45.291,24.252,44.924,24.252z M50.46,28.985l-1.823-1.823l7.104-6.912l1.727,1.727    L50.46,28.985z"
   id="path1" />
	</g>
</g>
<path
   id="rect4"
   style="fill:#000000;stroke-width:0.0758425"
   d="m 26.462891,12.857422 c 0,13.483724 0,26.967448 0,40.451172 2.557942,0 5.115885,0 7.673828,0 0,-13.534505 0,-27.069011 0,-40.603516 -2.557943,0 -5.115886,0 -7.673828,0 v 0.1 z" /><path
   id="path6"
   style="fill:#ff0000;stroke-width:0.0751846"
   d="m 55.652344,20.201172 c -2.385,2.314834 -4.768717,4.637963 -7.146485,6.96289 0.646462,0.654309 1.293314,1.308245 1.941407,1.960938 2.390589,-2.390009 4.781285,-4.779913 7.171875,-7.169922 -0.619643,-0.61929 -1.239732,-1.238133 -1.859375,-1.857422 l -0.07201,0.06939 z" /><path
   id="path7"
   style="fill:#ff0000;stroke-width:0.0751846"
   d="m 4.9453125,20.066406 c -0.6299221,0.629193 -1.2607066,1.257522 -1.890625,1.886719 2.3909525,2.389644 4.779301,4.781915 7.1718745,7.169922 0.659259,-0.718366 1.446291,-1.324818 1.996094,-2.138672 C 9.8625405,24.612253 7.4489828,22.294316 5.0507812,19.960938 l -0.070711,0.07071 z" /><path
   id="path8"
   style="fill:#000000;stroke-width:0.0728998"
   d="M 15.85115,8.5478408 C 12.414133,12.192139 8.9745556,15.83371 5.5370881,19.477529 c 2.3414866,2.425428 4.6816029,4.852366 7.0217149,7.279297 0.811367,-0.721261 1.509396,-2.018793 2.72679,-1.835938 0.477949,0.388801 1.033976,-0.25896 0.840616,-0.791796 -0.01022,-5.279689 -0.01876,-10.559386 -0.03268,-15.8390636 -0.0808,0.085937 -0.161587,0.171875 -0.242381,0.2578124 z" /><path
   id="path9"
   style="fill:#000000;stroke-width:0.0751846"
   d="m 44.166016,8.6582031 c 0,5.3131509 0,10.6263019 0,15.9394529 1.401018,-0.420649 2.44212,0.835275 3.265625,1.753906 0.546568,0.536521 1.173657,-0.145452 1.521484,-0.564453 2.184829,-2.048249 4.29735,-4.1736 6.447266,-6.259765 -3.743152,-3.746413 -7.487965,-7.491213 -11.234375,-11.2343752 0,0.1217447 0,0.2434895 0,0.3652343 z" /><path
   style="fill:#000000;stroke-width:0.991326"
   d="M 87.964142,336.29132 41.129584,289.44897 53.922369,276.68459 66.715155,263.9202 103.24605,299.65625 c 20.092,19.65484 41.17013,40.42173 46.8403,46.14865 l 10.30941,10.41259 -3.05153,3.79956 c -1.67835,2.08975 -7.43768,8.14589 -12.79853,13.45808 l -9.747,9.65853 z"
   id="path10"
   transform="scale(0.0758425)" /><path
   id="path11"
   style="fill:#000000;stroke-width:0.0751846"
   d="m 55.652693,20.050713 c -2.433712,2.370654 -4.866977,4.741732 -7.298804,7.114381 0.697673,0.703192 1.395478,1.406252 2.093076,2.109519 2.440378,-2.440058 4.880865,-4.880006 7.321319,-7.319987 -0.669448,-0.669448 -1.338897,-1.338896 -2.008345,-2.008345 -0.03575,0.03481 -0.0715,0.06962 -0.107246,0.104432 z" /><path
   id="path12"
   style="fill:#000000;stroke-width:0.0751846"
   d="m 4.9590922,19.977833 c -0.659775,0.658136 -1.3194215,1.316401 -1.9791633,1.974572 2.41439,2.414742 4.8287171,4.829548 7.2431071,7.244291 0.572223,-0.573527 1.161302,-1.131133 1.707006,-1.730385 0.133554,-0.144227 0.238926,-0.310925 0.356591,-0.467714 -0.827922,-0.83299 -1.655153,-1.666693 -2.4925267,-2.490209 -1.5701225,-1.551747 -3.1513108,-3.092233 -4.7289531,-4.63632 -0.035354,0.03526 -0.070707,0.07051 -0.106061,0.105765 z" /><path
   style="fill:#ffffff;stroke-width:0.991326"
   d="m 228.26928,512.76332 -0.26432,-170.75588 -2.07166,-4.46097 c -1.96843,-4.23867 -8.45344,-11.10877 -11.4187,-12.09674 -1.16415,-0.38788 -1.42372,-16.42138 -1.66256,-102.69644 -0.28154,-101.698 -0.27239,-102.24743 1.73482,-104.25465 1.93932,-1.93932 3.16554,-2.0177 31.50979,-2.01413 l 29.49195,0.004 1.83099,4.45236 c 8.45656,20.56351 30.61552,38.66977 60.12688,49.13015 l 10.40892,3.68947 0.24974,254.8795 0.24972,254.87951 H 288.49423 228.5336 Z"
   id="path13"
   transform="scale(0.0758425)" /><path
   style="fill:#ffffff;stroke-width:0.991326"
   d="M 450.55762,427.88567 V 172.25213 l 7.68278,-2.72283 c 26.28063,-9.31405 48.97043,-27.77114 57.4055,-46.69671 l 2.81755,-6.32166 31.22676,0.23276 31.22677,0.23277 0.25244,102.23322 0.25245,102.23321 -3.45215,2.6331 c -1.89869,1.44819 -4.68887,4.73692 -6.2004,7.30829 l -2.74825,4.6752 -0.25874,173.72986 -0.25874,173.72987 h -58.97298 -58.97299 z"
   id="path14"
   transform="scale(0.0758425)" /></svg>
