<?xml version="1.0" encoding="UTF-8" standalone="no"?>
<!-- Uploaded to: SVG Repo, www.svgrepo.com, Generator: SVG Repo Mixer Tools -->

<svg
   height="800px"
   width="800px"
   version="1.1"
   id="Capa_1"
   viewBox="0 0 60.674 60.674"
   xml:space="preserve"
   sodipodi:docname="NFO.svg"
   inkscape:version="1.4 (86a8ad7, 2024-10-11)"
   xmlns:inkscape="http://www.inkscape.org/namespaces/inkscape"
   xmlns:sodipodi="http://sodipodi.sourceforge.net/DTD/sodipodi-0.dtd"
   xmlns="http://www.w3.org/2000/svg"
   xmlns:svg="http://www.w3.org/2000/svg"><defs
   id="defs2" /><sodipodi:namedview
   id="namedview2"
   pagecolor="#ffffff"
   bordercolor="#000000"
   borderopacity="0.25"
   inkscape:showpageshadow="2"
   inkscape:pageopacity="0.0"
   inkscape:pagecheckerboard="0"
   inkscape:deskcolor="#d1d1d1"
   inkscape:zoom="1.00875"
   inkscape:cx="400"
   inkscape:cy="400"
   inkscape:window-width="1920"
   inkscape:window-height="1009"
   inkscape:window-x="-8"
   inkscape:window-y="-8"
   inkscape:window-maximized="1"
   inkscape:current-layer="Capa_1" />
<g
   id="g2"
   transform="translate(-0.07518463,-0.2255539)">
	<g
   id="g1">
		<path
   style="fill:#010002"
   d="M 46.682,6.95 C 46.007,6.275 44.869,5.803 43.914,5.803 h -5.818 c -0.134,0 -1.318,0.04 -1.516,1.438 -0.02,0.14 -0.05,0.351 -0.121,0.56 -0.473,1.384 -2.979,2.815 -6.353,2.815 -3.374,0 -5.88,-1.432 -6.353,-2.815 C 23.345,6.607 22.307,5.804 21.169,5.804 h -5.397 c -0.627,0 -0.627,0 -6.953,6.322 L 0.733,20.208 C 0.261,20.68 0.001,21.308 0,21.975 c 0,0.669 0.259,1.297 0.732,1.77 l 7.714,7.716 c 0.944,0.945 2.59,0.945 3.536,0 l 2.289,-2.29 v 23.2 c 0,1.379 1.122,2.5 2.5,2.5 h 26.854 c 1.378,0 2.5,-1.121 2.5,-2.5 V 28.892 l 2.568,2.568 c 0.944,0.945 2.591,0.945 3.535,0 l 7.714,-7.716 c 0.472,-0.472 0.732,-1.1 0.732,-1.768 0,-0.668 -0.26,-1.296 -0.732,-1.767 z M 10.214,28.985 3.207,21.977 C 3.778,21.406 4.406,20.778 5.064,20.12 l 7.103,6.912 z m 34.71,-4.733 c -0.894,0 -1.799,0.692 -1.799,2.018 V 51.871 H 17.271 V 26.548 c 0,-1.325 -0.905,-2.017 -1.799,-2.017 -0.367,0 -0.919,0.115 -1.469,0.664 L 12.875,26.324 5.772,19.413 C 9.87,15.316 14.91,10.28 16.39,8.805 h 4.536 c 0.993,2.835 4.76,4.813 9.18,4.813 4.42,0 8.188,-1.978 9.18,-4.813 h 4.628 c 0.162,0.002 0.531,0.155 0.647,0.268 l 10.473,10.472 -7.103,6.911 -1.538,-1.54 c -0.549,-0.549 -1.102,-0.664 -1.469,-0.664 z m 5.536,4.733 -1.823,-1.823 7.104,-6.912 1.727,1.727 z"
   id="path1" />
	</g>
</g>
<path
   style="fill:none;stroke-width:0.0758425"
   d="M 16.315066,8.495864 15.939142,24.585376"
   id="path2" /><rect
   style="fill:#000000;stroke-width:0.0758425"
   id="rect3"
   width="0.37592316"
   height="16.690989"
   x="16.089512"
   y="8.3454943" /><rect
   style="fill:#000000;stroke-width:0.0758425"
   id="rect3-9"
   width="0.37592316"
   height="16.690989"
   x="43.90839"
   y="8.3650427" /><path
   id="path3"
   style="fill:#ff0000;stroke-width:0.0751846"
   d="m 16.351317,8.6085682 c 0,5.3766208 0,10.7532418 0,16.1298628 0.141302,0.134612 0.300168,0.254763 0.405804,0.421904 0.129907,0.18034 0.212834,0.387574 0.308478,0.586713 0.01345,8.672955 0.02679,17.34591 0.04044,26.018865 8.695619,0 17.391238,0 26.086857,0 0.01337,-8.820788 0.02639,-17.641577 0.03955,-26.462367 0.161867,-0.271572 0.309324,-0.5616 0.547192,-0.776348 0.08078,-0.06345 0.161544,-0.126918 0.24234,-0.190347 0,-5.293323 0,-10.586645 0,-15.8799678 -1.624639,0.00142 -3.249279,0.00265 -4.873917,0.0043 -0.173181,0.3763502 -0.32099,0.7672622 -0.550053,1.1148514 -0.482858,0.7519904 -1.158523,1.3628264 -1.895414,1.8598494 -0.582144,0.391503 -1.210462,0.712208 -1.862743,0.969405 -0.0426,0.01592 -0.108653,0.04153 -0.160249,0.06116 -0.40254,0.150582 -0.813801,0.277456 -1.230098,0.384118 -0.288114,0.07362 -0.592793,0.139777 -0.890809,0.193942 -0.14863,0.02705 -0.311872,0.0536 -0.461111,0.0754 -0.315466,0.04625 -0.64356,0.08204 -0.961572,0.10602 -0.278705,0.02064 -0.557362,0.03366 -0.832691,0.03774 -0.465551,0.0077 -0.922321,-0.0074 -1.386156,-0.04424 -0.449203,-0.03613 -0.912505,-0.0957 -1.352274,-0.174468 -0.439726,-0.07906 -0.869715,-0.177513 -1.295134,-0.298385 -0.283027,-0.08069 -0.583423,-0.177417 -0.858995,-0.279158 -0.278527,-0.101853 -0.550658,-0.214357 -0.81694,-0.336815 C 23.633827,11.686498 22.726165,11.095914 22.01373,10.306877 21.6063,9.8564215 21.273937,9.3360889 21.055606,8.7684078 21.012995,8.6648153 20.97036,8.5612326 20.92779,8.4576234 c -1.525491,-1.251e-4 -3.050982,-4.801e-4 -4.576473,-7.402e-4 0,0.050562 0,0.1011231 0,0.151685 z" /><path
   style="fill:#f9f9f9;stroke-width:0.991326"
   d="M 122.15233,298.01548 75.779252,252.7881 142.47451,186.15747 c 36.68239,-36.64685 67.25288,-66.8559 67.93441,-67.13122 0.98652,-0.39852 1.23916,20.18821 1.23916,100.97384 v 101.47442 l -4.17398,-0.93784 c -9.62446,-2.16247 -16.73603,1.0995 -29.5311,13.54552 l -9.4176,9.16068 z"
   id="path4"
   transform="scale(0.0758425)" /><path
   style="fill:#f9f9f9;stroke-width:0.991326"
   d="m 619.07089,333.06186 c -13.68505,-13.73777 -18.12486,-16.33324 -27.93963,-16.33324 h -6.74464 V 216.60471 c 0,-55.06815 0.33576,-100.12392 0.74615,-100.12392 0.41038,0 31.80888,31.11524 69.77444,69.14498 l 69.02829,69.14499 -45.96075,44.60238 c -25.27841,24.5313 -46.31062,44.71899 -46.73825,44.86154 -0.42762,0.14254 -5.90215,-4.88523 -12.16561,-11.17282 z"
   id="path5"
   transform="scale(0.0758425)" /><path
   style="fill:#f9f9f9;stroke-width:0.991326"
   d="m 652.77803,366.71089 -11.39017,-11.49217 24.28748,-23.79397 c 13.35812,-13.08668 34.2404,-33.42725 46.40508,-45.20125 l 22.11759,-21.40729 10.84324,10.84324 10.84324,10.84324 -45.85814,45.85019 -45.85814,45.85018 z"
   id="path6"
   transform="scale(0.0758425)" /><path
   style="fill:#f9f9f9;stroke-width:0.991326"
   d="m 87.965246,332.32712 -45.84545,-45.8534 11.761528,-11.73089 11.761529,-11.73089 45.988987,44.73317 c 25.29394,24.60324 46.10218,45.05883 46.24053,45.45686 0.13836,0.39804 -5.21893,6.18104 -11.90506,12.85113 l -12.15661,12.12742 z"
   id="path7"
   transform="scale(0.0758425)" /><path
   style="fill:#800000;stroke-width:0.991326"
   d="M 225.52664,510.99555 V 339.46321 l -2.38019,-4.67584 c -1.3091,-2.57172 -3.53958,-5.75732 -4.95663,-7.07913 l -2.57644,-2.40329 V 218.41456 111.52416 h 29.69248 29.69247 l 4.01911,8.22659 c 8.02783,16.43191 21.01388,28.40533 42.17215,38.88366 13.34896,6.61087 26.86522,11.02856 42.62701,13.93233 11.85649,2.18429 42.23761,2.9972 54.77945,1.46572 43.68015,-5.33373 79.49948,-25.55993 93.42443,-52.75422 l 4.37019,-8.53462 5.00169,-0.60111 c 2.75093,-0.33061 17.15783,-0.60499 32.01532,-0.60973 l 27.01363,-0.009 v 104.55001 c 0,103.45697 -0.0207,104.56107 -1.9782,105.6087 -1.08801,0.58229 -3.54154,3.38013 -5.45229,6.21743 l -3.47409,5.15873 V 507.79346 682.52788 H 397.52169 225.52664 Z"
   id="path8"
   transform="scale(0.0758425)" /><path
   style="fill:#800000;stroke-width:0.991326"
   d="m 87.474713,331.83659 -45.354875,-45.36292 11.805176,-11.77442 11.805176,-11.77442 6.787941,6.82956 c 3.733367,3.75626 15.263777,15.04994 25.623133,25.09707 31.697376,30.74205 58.983886,57.88695 58.983886,58.67778 0,1.24586 -21.94514,23.67026 -23.16438,23.67026 -0.62215,0 -21.54088,-20.41331 -46.486057,-45.36291 z"
   id="path9"
   transform="scale(0.0758425)" /><path
   id="path10"
   style="fill:#800000;stroke-width:0.0751846"
   d="m 55.668098,20.037085 c -0.157402,0.0024 -0.263187,0.137546 -0.373581,0.231042 -0.830624,0.775601 -1.630324,1.583412 -2.444011,2.376589 -1.197474,1.172099 -2.393578,2.345748 -3.607375,3.500986 -0.274528,0.266255 -0.568334,0.51117 -0.857542,0.761054 0.662153,0.663906 1.324287,1.327831 1.986422,1.991754 2.389857,-2.389504 4.779778,-4.778945 7.169635,-7.168449 -0.461221,-0.459316 -0.915308,-0.925908 -1.382504,-1.379157 -0.126224,-0.11273 -0.246454,-0.246846 -0.410747,-0.30255 -0.0259,-0.0073 -0.05336,-0.01195 -0.0803,-0.01127 z" /><path
   id="path11"
   style="fill:#800000;stroke-width:0.0751846"
   d="m 16.818359,8.28125 c -0.495764,-0.062961 -0.757339,0.3770622 -0.61914,0.828125 0,5.169922 0,10.339844 0,15.509766 0.638233,0.516802 0.760129,1.342791 0.681595,2.111294 0.109108,8.395408 0.04365,16.791708 0.07036,25.187534 8.798828,0 17.597656,0 26.396484,0 0.02086,-8.867088 -0.02611,-17.777114 0.07422,-26.617188 0.199233,-0.594853 0.846173,-1.058218 0.664972,-1.760526 0.09125,-5.083877 0.07358,-10.168746 0.106512,-15.2531456 -1.67643,0.047128 -3.355486,0.031513 -5.027343,0.1679687 -0.747687,1.2767604 -1.654012,2.5118499 -3.008986,3.1940209 -2.165554,1.298585 -4.70384,1.569048 -7.18828,1.432932 C 26.661383,12.967597 24.214194,12.182987 22.453587,10.597558 21.803634,9.9805663 21.310691,9.2109237 20.978516,8.3808594 19.590277,8.1802285 18.186638,8.4022378 16.818359,8.28125 Z" /><path
   id="path12"
   style="fill:#800000;stroke-width:0.0751846"
   d="m 5.0045681,19.90362 c -0.1023129,0.0064 -0.1719994,0.09752 -0.2484498,0.156047 -0.5161389,0.465554 -0.9950055,0.970184 -1.4885425,1.459178 -0.071489,0.07169 -0.1429795,0.143379 -0.2144708,0.215068 1.5765442,1.569014 3.1488147,3.142333 4.7293434,4.707338 0.7016516,0.690537 1.4004106,1.384346 2.1166937,2.059714 0.078244,0.06838 0.1488909,0.149479 0.2458289,0.191942 0.131939,-0.01163 0.219479,-0.121197 0.31448,-0.20042 0.435876,-0.410668 0.852738,-0.841373 1.257028,-1.283038 0.09172,-0.109681 0.200479,-0.209739 0.265743,-0.338349 0.0078,-0.04002 0.03623,-0.08766 3e-4,-0.121251 -0.07727,-0.114627 -0.185071,-0.205073 -0.277977,-0.306804 C 10.589746,25.31044 9.4579026,24.194774 8.3288921,23.07638 7.3197285,22.081897 6.3141034,21.083663 5.290904,20.103578 5.211558,20.03518 5.1410965,19.947231 5.0470582,19.90186 c -0.014163,5.86e-4 -0.028327,0.0012 -0.04249,0.0018 z" /></svg>
