<?xml version="1.0" encoding="UTF-8" standalone="no"?>
<!-- Uploaded to: SVG Repo, www.svgrepo.com, Generator: SVG Repo Mixer Tools -->

<svg
   height="800px"
   width="800px"
   version="1.1"
   id="Capa_1"
   viewBox="0 0 60.674 60.674"
   xml:space="preserve"
   sodipodi:docname="TOT.svg"
   inkscape:version="1.4 (86a8ad7, 2024-10-11)"
   xmlns:inkscape="http://www.inkscape.org/namespaces/inkscape"
   xmlns:sodipodi="http://sodipodi.sourceforge.net/DTD/sodipodi-0.dtd"
   xmlns="http://www.w3.org/2000/svg"
   xmlns:svg="http://www.w3.org/2000/svg"><defs
   id="defs2" /><sodipodi:namedview
   id="namedview2"
   pagecolor="#ffffff"
   bordercolor="#000000"
   borderopacity="0.25"
   inkscape:showpageshadow="2"
   inkscape:pageopacity="0.0"
   inkscape:pagecheckerboard="0"
   inkscape:deskcolor="#d1d1d1"
   inkscape:zoom="1.00875"
   inkscape:cx="400"
   inkscape:cy="400"
   inkscape:window-width="1920"
   inkscape:window-height="1009"
   inkscape:window-x="-8"
   inkscape:window-y="-8"
   inkscape:window-maximized="1"
   inkscape:current-layer="Capa_1" />
<g
   id="g2"
   transform="translate(-0.07518463,-0.2255539)">
	<g
   id="g1">
		<path
   style="fill:#010002"
   d="M 46.682,6.95 C 46.007,6.275 44.869,5.803 43.914,5.803 h -5.818 c -0.134,0 -1.318,0.04 -1.516,1.438 -0.02,0.14 -0.05,0.351 -0.121,0.56 -0.473,1.384 -2.979,2.815 -6.353,2.815 -3.374,0 -5.88,-1.432 -6.353,-2.815 C 23.345,6.607 22.307,5.804 21.169,5.804 h -5.397 c -0.627,0 -0.627,0 -6.953,6.322 L 0.733,20.208 C 0.261,20.68 0.001,21.308 0,21.975 c 0,0.669 0.259,1.297 0.732,1.77 l 7.714,7.716 c 0.944,0.945 2.59,0.945 3.536,0 l 2.289,-2.29 v 23.2 c 0,1.379 1.122,2.5 2.5,2.5 h 26.854 c 1.378,0 2.5,-1.121 2.5,-2.5 V 28.892 l 2.568,2.568 c 0.944,0.945 2.591,0.945 3.535,0 l 7.714,-7.716 c 0.472,-0.472 0.732,-1.1 0.732,-1.768 0,-0.668 -0.26,-1.296 -0.732,-1.767 z M 10.214,28.985 3.207,21.977 C 3.778,21.406 4.406,20.778 5.064,20.12 l 7.103,6.912 z m 34.71,-4.733 c -0.894,0 -1.799,0.692 -1.799,2.018 V 51.871 H 17.271 V 26.548 c 0,-1.325 -0.905,-2.017 -1.799,-2.017 -0.367,0 -0.919,0.115 -1.469,0.664 L 12.875,26.324 5.772,19.413 C 9.87,15.316 14.91,10.28 16.39,8.805 h 4.536 c 0.993,2.835 4.76,4.813 9.18,4.813 4.42,0 8.188,-1.978 9.18,-4.813 h 4.628 c 0.162,0.002 0.531,0.155 0.647,0.268 l 10.473,10.472 -7.103,6.911 -1.538,-1.54 c -0.549,-0.549 -1.102,-0.664 -1.469,-0.664 z m 5.536,4.733 -1.823,-1.823 7.104,-6.912 1.727,1.727 z"
   id="path1" />
	</g>
</g>
<path
   style="fill:none;stroke-width:0.0758425"
   d="M 16.315066,8.495864 15.939142,24.585376"
   id="path2" /><rect
   style="fill:#000000;stroke-width:0.0758425"
   id="rect3"
   width="0.37592316"
   height="16.690989"
   x="16.089512"
   y="8.3454943" /><rect
   style="fill:#000000;stroke-width:0.0758425"
   id="rect3-9"
   width="0.37592316"
   height="16.690989"
   x="43.90839"
   y="8.3650427" /><path
   id="path3"
   style="fill:#ff0000;stroke-width:0.0751846"
   d="m 16.351317,8.6085682 c 0,5.3766208 0,10.7532418 0,16.1298628 0.141302,0.134612 0.300168,0.254763 0.405804,0.421904 0.129907,0.18034 0.212834,0.387574 0.308478,0.586713 0.01345,8.672955 0.02679,17.34591 0.04044,26.018865 8.695619,0 17.391238,0 26.086857,0 0.01337,-8.820788 0.02639,-17.641577 0.03955,-26.462367 0.161867,-0.271572 0.309324,-0.5616 0.547192,-0.776348 0.08078,-0.06345 0.161544,-0.126918 0.24234,-0.190347 0,-5.293323 0,-10.586645 0,-15.8799678 -1.624639,0.00142 -3.249279,0.00265 -4.873917,0.0043 -0.173181,0.3763502 -0.32099,0.7672622 -0.550053,1.1148514 -0.482858,0.7519904 -1.158523,1.3628264 -1.895414,1.8598494 -0.582144,0.391503 -1.210462,0.712208 -1.862743,0.969405 -0.0426,0.01592 -0.108653,0.04153 -0.160249,0.06116 -0.40254,0.150582 -0.813801,0.277456 -1.230098,0.384118 -0.288114,0.07362 -0.592793,0.139777 -0.890809,0.193942 -0.14863,0.02705 -0.311872,0.0536 -0.461111,0.0754 -0.315466,0.04625 -0.64356,0.08204 -0.961572,0.10602 -0.278705,0.02064 -0.557362,0.03366 -0.832691,0.03774 -0.465551,0.0077 -0.922321,-0.0074 -1.386156,-0.04424 -0.449203,-0.03613 -0.912505,-0.0957 -1.352274,-0.174468 -0.439726,-0.07906 -0.869715,-0.177513 -1.295134,-0.298385 -0.283027,-0.08069 -0.583423,-0.177417 -0.858995,-0.279158 -0.278527,-0.101853 -0.550658,-0.214357 -0.81694,-0.336815 C 23.633827,11.686498 22.726165,11.095914 22.01373,10.306877 21.6063,9.8564215 21.273937,9.3360889 21.055606,8.7684078 21.012995,8.6648153 20.97036,8.5612326 20.92779,8.4576234 c -1.525491,-1.251e-4 -3.050982,-4.801e-4 -4.576473,-7.402e-4 0,0.050562 0,0.1011231 0,0.151685 z" /><path
   style="fill:#f9f9f9;stroke-width:0.991326"
   d="M 122.15233,298.01548 75.779252,252.7881 142.47451,186.15747 c 36.68239,-36.64685 67.25288,-66.8559 67.93441,-67.13122 0.98652,-0.39852 1.23916,20.18821 1.23916,100.97384 v 101.47442 l -4.17398,-0.93784 c -9.62446,-2.16247 -16.73603,1.0995 -29.5311,13.54552 l -9.4176,9.16068 z"
   id="path4"
   transform="scale(0.0758425)" /><path
   style="fill:#f9f9f9;stroke-width:0.991326"
   d="m 619.07089,333.06186 c -13.68505,-13.73777 -18.12486,-16.33324 -27.93963,-16.33324 h -6.74464 V 216.60471 c 0,-55.06815 0.33576,-100.12392 0.74615,-100.12392 0.41038,0 31.80888,31.11524 69.77444,69.14498 l 69.02829,69.14499 -45.96075,44.60238 c -25.27841,24.5313 -46.31062,44.71899 -46.73825,44.86154 -0.42762,0.14254 -5.90215,-4.88523 -12.16561,-11.17282 z"
   id="path5"
   transform="scale(0.0758425)" /><path
   style="fill:#f9f9f9;stroke-width:0.991326"
   d="m 652.77803,366.71089 -11.39017,-11.49217 24.28748,-23.79397 c 13.35812,-13.08668 34.2404,-33.42725 46.40508,-45.20125 l 22.11759,-21.40729 10.84324,10.84324 10.84324,10.84324 -45.85814,45.85019 -45.85814,45.85018 z"
   id="path6"
   transform="scale(0.0758425)" /><path
   style="fill:#f9f9f9;stroke-width:0.991326"
   d="m 87.965246,332.32712 -45.84545,-45.8534 11.761528,-11.73089 11.761529,-11.73089 45.988987,44.73317 c 25.29394,24.60324 46.10218,45.05883 46.24053,45.45686 0.13836,0.39804 -5.21893,6.18104 -11.90506,12.85113 l -12.15661,12.12742 z"
   id="path7"
   transform="scale(0.0758425)" /><path
   id="path8"
   style="fill:#ffffff;stroke-width:0.0751846"
   d="m 16.200965,8.4582165 c 0,5.4265405 0,10.8530815 0,16.2796225 0.140031,0.134816 0.295795,0.256651 0.402951,0.42139 0.141865,0.19251 0.239057,0.411965 0.348956,0.623073 0,8.711321 0,17.422642 0,26.133963 8.797484,0 17.594967,0 26.39245,0 0,-8.870017 0,-17.740035 0,-26.610052 0.183482,-0.262788 0.343272,-0.549194 0.58378,-0.765832 0.08861,-0.0434 0.146912,-0.130494 0.163433,-0.226858 0.04808,-0.257761 0.04521,-0.521718 0.0551,-0.782911 0.02508,-1.192559 0.02021,-2.385499 0.02315,-3.578257 0.0031,-3.88194 8.88e-4,-7.763883 0.0015,-11.6458235 -1.284443,0.00349 -2.569052,-0.00857 -3.853339,0.016538 -0.340177,0.00937 -0.681863,0.00851 -1.019247,0.058625 -0.07787,0.00936 -0.155732,0.018733 -0.233599,0.028085 -0.166161,0.3169936 -0.319391,0.6409958 -0.496471,0.9521161 -0.29176,0.4980812 -0.673162,0.9397424 -1.100665,1.3259734 -0.04041,0.03536 -0.09792,0.08712 -0.146059,0.127373 -0.661763,0.56242 -1.421052,1.002016 -2.217057,1.345038 -0.04759,0.01951 -0.110126,0.04679 -0.159551,0.06674 -0.515338,0.211654 -1.046822,0.383135 -1.586901,0.51941 -0.108945,0.02753 -0.234099,0.05735 -0.344977,0.08157 -0.4457,0.09927 -0.9034,0.176581 -1.361755,0.229001 -0.589441,0.05532 -1.182568,0.05368 -1.774007,0.04526 -0.314598,-0.0058 -0.631204,-0.01664 -0.949243,-0.0344 -0.145491,-0.0071 -0.283788,-0.01768 -0.431641,-0.02769 -0.07601,-0.0062 -0.172626,-0.01464 -0.25656,-0.02163 -0.338451,-0.02836 -0.673936,-0.08321 -1.005487,-0.156283 -1.009354,-0.210973 -1.992633,-0.549846 -2.911523,-1.018705 -0.151253,-0.07658 -0.29118,-0.151451 -0.440213,-0.235429 -0.181102,-0.102499 -0.358986,-0.210696 -0.532842,-0.325073 -0.04318,-0.02911 -0.10617,-0.07053 -0.1562,-0.106125 -0.655083,-0.452427 -1.235552,-1.024114 -1.64897,-1.7078101 -0.222383,-0.3646462 -0.391071,-0.7581611 -0.583172,-1.1388639 -0.01594,-0.047244 -0.08218,-0.013854 -0.121435,-0.02372 -1.546802,0 -3.093604,0 -4.640406,0 0,0.050561 0,0.1011231 0,0.1516845 z" /><path
   style="fill:#000080;stroke-width:0.991326"
   d="m 150.4688,325.40273 c -9.66725,-9.40521 -24.45407,-23.79183 -32.85961,-31.97026 -8.40553,-8.17844 -21.251976,-20.73194 -28.547645,-27.89666 l -13.264852,-13.02675 67.182197,-66.60479 67.1822,-66.60479 0.60908,11.72573 c 0.335,6.44914 0.66957,51.77532 0.7435,100.72483 l 0.13441,88.9991 -6.19579,-0.62818 c -9.18635,-0.93138 -15.06268,2.0014 -26.84111,13.39596 -5.1089,4.9424 -9.57616,8.98618 -9.92724,8.98618 -0.35108,0 -8.5479,-7.69517 -18.21514,-17.10037 z"
   id="path9"
   transform="scale(0.0758425)" /><path
   id="path10"
   style="fill:#000080;stroke-width:0.0751846"
   d="m 44.28254,8.8728315 c -0.0251,0.6340471 -0.05924,1.2678595 -0.06295,1.9025295 -0.02979,2.331854 -0.03548,4.663942 -0.04059,6.995959 -0.0032,2.133949 -0.0063,4.267898 -0.0096,6.401848 0.295526,0.0037 0.59152,-0.0085 0.886706,0.0083 0.263622,0.01578 0.514995,0.117851 0.730498,0.267568 0.383781,0.26377 0.718638,0.59099 1.060606,0.904554 0.296368,0.273146 0.587509,0.552554 0.895083,0.813114 0.03585,0.02266 0.07216,0.0569 0.116797,0.0359 0.117866,-0.02145 0.20316,-0.116691 0.294967,-0.186542 0.537712,-0.465145 1.039496,-0.969681 1.552018,-1.461975 1.503063,-1.458684 3.016013,-2.907235 4.517332,-4.367665 0.235472,-0.237468 0.484601,-0.462838 0.700253,-0.718984 0.05279,-0.06106 0.08759,-0.14471 0.07437,-0.22438 -0.08592,-0.128195 -0.205497,-0.229264 -0.308941,-0.342876 -1.182043,-1.207305 -2.379351,-2.399549 -3.574807,-3.593543 -2.270362,-2.261449 -4.545196,-4.518402 -6.817495,-6.7779052 -0.0047,0.1147019 -0.0095,0.2294038 -0.01422,0.3441057 z" /><path
   id="path11"
   style="fill:#000080;stroke-width:0.0751846"
   d="M 15.863281,8.7519531 C 12.366061,12.226083 8.8691955,15.700574 5.3730469,19.175781 c 2.4235528,2.3223 4.7998891,4.70069 7.2578121,6.982422 0.481892,0.164565 0.792034,-0.533889 1.173013,-0.750141 0.546741,-0.587529 1.327948,-1.015138 2.165687,-0.821036 0.600549,0.132893 0.263661,-0.657945 0.34628,-0.996397 -0.03775,-4.700793 0.02489,-9.406125 -0.10867,-14.1039397 -0.09823,-0.2114283 0.02534,-1.3628968 -0.343888,-0.7347362 z" /><path
   id="path12"
   style="fill:#000080;stroke-width:0.0751846"
   d="m 44.186552,8.5824973 c -0.02426,0.6607892 -0.05611,1.3213432 -0.0615,1.9826547 -0.04951,3.585079 -0.05838,7.170549 -0.07692,10.755879 -0.0048,0.994065 -0.0095,1.98813 -0.0143,2.982195 0.369133,0.01801 0.739185,0.0216 1.107568,0.05214 0.228613,0.01907 0.447296,0.105731 0.633507,0.238464 0.33779,0.236526 0.636449,0.522921 0.942897,0.797505 0.312343,0.283616 0.623334,0.572134 0.970885,0.812704 0.07711,0.05561 0.178364,0.09893 0.271284,0.05471 0.16186,-0.0728 0.287938,-0.203668 0.423065,-0.315417 0.657344,-0.591669 1.290963,-1.20876 1.930546,-1.819348 1.207211,-1.160152 2.415674,-2.319062 3.613525,-3.488894 0.328461,-0.327968 0.666162,-0.648165 0.968854,-1.00059 0.08676,-0.10819 0.189437,-0.231446 0.176932,-0.378546 -0.03272,-0.101301 -0.12244,-0.169538 -0.188365,-0.249419 -0.554694,-0.594913 -1.126995,-1.173059 -1.695665,-1.754587 -2.282122,-2.323261 -4.593343,-4.617659 -6.89445,-6.922054 -0.698223,-0.6981594 -1.396476,-1.3962881 -2.094677,-2.0944698 -0.0044,0.1156893 -0.0088,0.2313787 -0.01318,0.3470681 z" /></svg>
