<?xml version="1.0" encoding="UTF-8" standalone="no"?>
<!-- Uploaded to: SVG Repo, www.svgrepo.com, Generator: SVG Repo Mixer Tools -->

<svg
   height="800px"
   width="800px"
   version="1.1"
   id="Capa_1"
   viewBox="0 0 60.674 60.674"
   xml:space="preserve"
   sodipodi:docname="WHU.svg"
   inkscape:version="1.4 (86a8ad7, 2024-10-11)"
   xmlns:inkscape="http://www.inkscape.org/namespaces/inkscape"
   xmlns:sodipodi="http://sodipodi.sourceforge.net/DTD/sodipodi-0.dtd"
   xmlns="http://www.w3.org/2000/svg"
   xmlns:svg="http://www.w3.org/2000/svg"><defs
   id="defs2" /><sodipodi:namedview
   id="namedview2"
   pagecolor="#ffffff"
   bordercolor="#000000"
   borderopacity="0.25"
   inkscape:showpageshadow="2"
   inkscape:pageopacity="0.0"
   inkscape:pagecheckerboard="0"
   inkscape:deskcolor="#d1d1d1"
   showgrid="false"
   inkscape:zoom="1.00875"
   inkscape:cx="156.13383"
   inkscape:cy="292.9368"
   inkscape:window-width="1920"
   inkscape:window-height="1009"
   inkscape:window-x="-8"
   inkscape:window-y="-8"
   inkscape:window-maximized="1"
   inkscape:current-layer="Capa_1" />
<g
   id="g2">
	<g
   id="g1">
		<path
   style="fill:#010002;"
   d="M46.682,6.95c-0.675-0.675-1.813-1.147-2.768-1.147h-5.818c-0.134,0-1.318,0.04-1.516,1.438    c-0.02,0.14-0.05,0.351-0.121,0.56c-0.473,1.384-2.979,2.815-6.353,2.815s-5.88-1.432-6.353-2.815    c-0.408-1.194-1.446-1.997-2.584-1.997h-5.397c-0.627,0-0.627,0-6.953,6.322l-8.086,8.082C0.261,20.68,0.001,21.308,0,21.975    c0,0.669,0.259,1.297,0.732,1.77l7.714,7.716c0.944,0.945,2.59,0.945,3.536,0l2.289-2.29v23.2c0,1.379,1.122,2.5,2.5,2.5h26.854    c1.378,0,2.5-1.121,2.5-2.5V28.892l2.568,2.568c0.944,0.945,2.591,0.945,3.535,0l7.714-7.716c0.472-0.472,0.732-1.1,0.732-1.768    s-0.26-1.296-0.732-1.767L46.682,6.95z M10.214,28.985l-7.007-7.008c0.571-0.571,1.199-1.199,1.857-1.857l7.103,6.912    L10.214,28.985z M44.924,24.252c-0.894,0-1.799,0.692-1.799,2.018v25.601H17.271V26.548c0-1.325-0.905-2.017-1.799-2.017    c-0.367,0-0.919,0.115-1.469,0.664l-1.128,1.129l-7.103-6.911C9.87,15.316,14.91,10.28,16.39,8.805h4.536    c0.993,2.835,4.76,4.813,9.18,4.813s8.188-1.978,9.18-4.813h4.628c0.162,0.002,0.531,0.155,0.647,0.268l10.473,10.472    l-7.103,6.911l-1.538-1.54C45.844,24.367,45.291,24.252,44.924,24.252z M50.46,28.985l-1.823-1.823l7.104-6.912l1.727,1.727    L50.46,28.985z"
   id="path1" />
	</g>
</g>
<rect
   style="fill:#000000;stroke-width:0.0758425"
   id="rect2"
   width="0.30073854"
   height="16.991728"
   x="16.390249"
   y="8.6462326" /><rect
   style="fill:#000000;stroke-width:0.0758425"
   id="rect2-8"
   width="0.30073854"
   height="16.991728"
   x="16.370327"
   y="8.2404242" /><path
   id="path2"
   style="fill:#00ffff;stroke-width:0.0375923"
   d="M 16.264365,8.7646968 C 12.704673,12.312123 9.1435688,15.858226 5.5822747,19.404126 c 2.1412593,2.082465 4.2771259,4.170497 6.4252263,6.245914 0.260329,0.247519 0.513579,0.502794 0.780607,0.743065 0.03483,0.04385 0.07288,0.05659 0.116469,0.01574 0.111489,-0.05904 0.191873,-0.161109 0.286511,-0.242497 0.371615,-0.349337 0.721953,-0.721666 1.109519,-1.053744 0.202136,-0.173114 0.438266,-0.309264 0.694218,-0.383951 0.203775,-0.04009 0.413355,-0.02366 0.619842,-0.02785 0.154296,0.0014 0.316358,-5.35e-4 0.455615,0.07627 0.151245,0.07003 0.301841,0.141479 0.452866,0.211993 0,-5.494088 0,-10.988176 0,-16.4822643 -0.08626,0.085965 -0.172522,0.1719297 -0.258783,0.2578951 z" /><path
   style="fill:#00ffff;stroke-width:0.495663"
   d="m 88.475973,335.56396 -45.846677,-45.84869 11.984711,-11.98471 11.984711,-11.98472 4.618857,4.39216 c 2.540371,2.41569 23.531357,22.79798 46.646635,45.29398 l 42.02779,40.90181 -12.53219,12.53942 c -6.89271,6.89669 -12.64581,12.53943 -12.78468,12.53943 -0.13886,0 -20.88349,-20.63191 -46.099157,-45.84868 z"
   id="path3"
   transform="scale(0.0758425)" /><path
   id="path4"
   style="fill:#00ffff;stroke-width:0.0375923"
   d="m 44.21875,8.7148438 c -0.126813,2.9999422 -0.03695,6.0130342 -0.06933,9.0179682 -0.0012,2.305209 -9.99e-4,4.610417 -9.85e-4,6.915626 0.781569,-0.267624 1.672137,-0.02643 2.216402,0.633984 0.549494,0.423692 0.923694,1.127338 1.576566,1.3875 0.698969,-0.297115 1.137479,-1.059847 1.737175,-1.530833 1.905241,-1.867209 3.839994,-3.705327 5.712044,-5.603933 C 51.751644,15.850865 48.103303,12.170532 44.39634,8.5561881 44.230268,8.3169316 44.238591,8.5543822 44.21875,8.7148438 Z" /><rect
   style="fill:#000000;stroke-width:0.0758425"
   id="rect2-8-1"
   width="0.30073854"
   height="16.991728"
   x="44.091072"
   y="8.619463" /><path
   style="fill:#00ffff;stroke-width:0.495663"
   d="m 653.53113,369.76409 -11.64063,-11.64854 4.95314,-4.91677 c 2.72423,-2.70423 23.6816,-23.11992 46.57194,-45.36822 l 41.6188,-40.45145 11.16812,11.16812 11.16812,11.16812 -45.84663,45.84865 c -25.21565,25.21675 -45.9604,45.84864 -46.09943,45.84864 -0.13904,0 -5.49108,-5.24184 -11.89343,-11.64855 z"
   id="path5"
   transform="scale(0.0758425)" /><path
   style="fill:#00ffff;stroke-width:1.40195"
   d="m 227.79942,512.06097 -0.0169,-171.38796 -3.48798,-6.10137 -3.48798,-6.10139 V 222.7664 117.06254 H 247.98 275.15343 l 3.80515,7.77742 c 2.09282,4.27759 7.27394,11.52415 11.51358,16.10347 42.19144,45.57178 139.71973,52.66911 196.24817,14.28137 10.81924,-7.34721 23.56515,-21.20251 28.20181,-30.65647 l 3.68119,-7.50579 h 31.25174 31.25175 v 102.30977 102.30977 l -3.43602,2.25138 c -1.88981,1.23825 -4.72875,4.9218 -6.30876,8.18565 -2.84803,5.88323 -2.87274,7.42003 -2.87274,178.63205 V 683.44893 H 398.15281 227.81631 Z"
   id="path6"
   transform="scale(0.0758425)" /><path
   id="path7"
   style="fill:#800000;stroke-width:0.106327"
   d="m 16.443359,8.7265625 c 0.01436,5.3956615 -0.02869,10.8082765 0.02148,16.1933595 0.345315,0.51612 0.631321,1.047942 0.505979,1.688672 0.0013,8.510026 0.0026,17.020052 0.0038,25.530078 8.815105,0 17.630209,0 26.445313,0 0.0286,-8.839053 -0.06621,-17.679587 0.08594,-26.517578 -0.0788,-0.606173 0.781898,-0.847993 0.871094,-1.35 0,-5.232292 0,-10.464584 0,-15.6968752 -1.717448,0 -3.434896,-1e-7 -5.152344,0 -1.106537,2.5481572 -3.72533,4.0936902 -6.384592,4.5407062 -3.137236,0.53361 -6.599537,0.261776 -9.34134,-1.518403 -1.153347,-0.738058 -1.93757,-1.8238497 -2.565083,-3.0223032 -1.496745,-1e-7 -2.99349,-1e-7 -4.490235,0 v 0.1 z" /><path
   style="fill:#d40000;stroke-width:0.991326"
   d="M 224.53532,514.61749 V 341.75047 l -3.4511,-6.8108 -3.4511,-6.8108 -0.0185,-107.31103 -0.0185,-107.31102 h 29.06158 29.06157 l 2.3341,4.21313 c 13.63348,24.6089 33.34969,40.50849 62.2203,50.1758 29.26127,9.79814 66.32672,11.30418 99.48977,4.04248 23.01111,-5.03873 44.22935,-16.34723 59.23086,-31.56774 6.42694,-6.52076 14.46496,-17.7915 16.92628,-23.73363 l 1.2965,-3.13004 h 33.58481 33.58482 v 104.09783 104.09783 l -5.28972,5.75388 -5.2897,5.75388 -0.65825,13.72511 c -0.36204,7.5488 -0.65824,87.26051 -0.65824,177.13713 V 687.48451 H 398.51301 224.53532 Z"
   id="path8"
   transform="scale(0.0758425)" /><path
   style="fill:#d40000;stroke-width:0.991326"
   d="M 88.729719,335.07421 43.638611,289.97493 55.016587,278.56458 c 6.257886,-6.27569 11.713388,-11.297 12.123338,-11.15846 0.409949,0.13853 21.213302,20.10317 46.229675,44.36588 l 45.48432,44.114 -12.00192,12.14374 c -6.60106,6.67906 -12.23351,12.14374 -12.51655,12.14374 -0.28304,0 -20.80562,-20.29467 -45.605731,-45.09927 z"
   id="path9"
   transform="scale(0.0758425)" /><path
   id="path10"
   style="fill:#d40000;stroke-width:0.0751846"
   d="m 55.605884,20.242985 c -2.354988,2.29807 -4.710059,4.596056 -7.065203,6.893965 0.565047,0.561819 1.118802,1.135186 1.697491,1.683041 0.07802,0.07425 0.157401,0.149042 0.258565,0.190506 0.148331,-0.09456 0.2616,-0.232017 0.390935,-0.349389 1.746629,-1.713833 3.470729,-3.450408 5.202193,-5.179509 0.496719,-0.496792 0.993413,-0.993608 1.490146,-1.490385 -0.622439,-0.617457 -1.2448,-1.234993 -1.867325,-1.852364 -0.0356,0.03471 -0.0712,0.06942 -0.106802,0.104135 z" /><path
   id="path11"
   style="fill:#d40000;stroke-width:0.0751846"
   d="m 4.9570184,20.204175 c -0.5958278,0.595828 -1.1916556,1.191656 -1.7874833,1.787483 1.8254858,1.823294 3.6454958,3.652083 5.4765493,5.469793 0.4724472,0.466104 0.9404865,0.936915 1.4217106,1.393954 0.0337,0.0306 0.07354,0.05331 0.110061,0.08029 0.125486,-0.05263 0.216981,-0.155264 0.315268,-0.245393 0.581398,-0.555812 1.141145,-1.133393 1.711149,-1.700885 C 10.111279,24.965243 8.0232302,22.935925 5.9221559,20.920128 5.6353423,20.64658 5.3486375,20.372918 5.0617462,20.099451 c -0.034909,0.03491 -0.069819,0.06982 -0.1047278,0.104728 z" /><path
   id="path12"
   style="fill:#d40000;stroke-width:0.0751846"
   d="m 16.351317,8.606346 c 0,5.402248 0,10.804495 0,16.206743 0.175286,0.348525 0.350953,0.69686 0.526306,1.045352 0,8.811259 0,17.622519 0,26.433778 8.897668,-1e-6 17.795336,0 26.693004,0 0.0041,-5.525056 0.0043,-11.050116 0.01134,-16.57517 0.0059,-3.036378 0.01055,-6.072794 0.03506,-9.10909 0.005,-0.326634 0.0029,-0.653673 0.01801,-0.979971 0.01614,-0.168666 0.07003,-0.335107 0.175943,-0.469324 0.19384,-0.253779 0.416147,-0.484108 0.624136,-0.726121 0.0437,-0.02926 0.04046,-0.07628 0.03792,-0.123037 0,-5.284208 0,-10.568415 0,-15.8526228 -1.759882,0 -3.519764,0 -5.279645,0 -0.150244,0.294209 -0.289876,0.5952445 -0.477606,0.8682806 -0.112411,0.1710529 -0.235858,0.3420034 -0.355461,0.4994486 -0.341952,0.4447256 -0.704942,0.8811236 -1.148196,1.2292356 -0.506648,0.404083 -1.051137,0.761447 -1.623923,1.064658 -0.617873,0.313583 -1.277451,0.538543 -1.946767,0.713691 -1.351311,0.346001 -2.755079,0.475393 -4.147661,0.416465 -0.962211,-0.04466 -1.9218,-0.17612 -2.856732,-0.409529 -0.36823,-0.09264 -0.731971,-0.203207 -1.088786,-0.33312 -0.08155,-0.02988 -0.180861,-0.06772 -0.268478,-0.102544 C 24.234915,11.989847 23.260699,11.380488 22.471895,10.576221 21.970627,10.069706 21.548869,9.48848 21.198991,8.8685623 21.126271,8.7441222 21.05346,8.619736 20.98082,8.4952489 c -1.543169,-0.013793 -3.086335,-0.028002 -4.629503,-0.041921 0,0.051006 0,0.1020127 0,0.1530181 z" /></svg>
